<?xml version="1.0" standalone="no"?>
<!DOCTYPE svg PUBLIC "-//W3C//DTD SVG 1.1//EN" "http://www.w3.org/Graphics/SVG/1.1/DTD/svg11.dtd" >
<svg xmlns="http://www.w3.org/2000/svg" xmlns:xlink="http://www.w3.org/1999/xlink" version="1.1">
<metadata></metadata>
<defs>
<font id="back_to_black_demoregular" horiz-adv-x="1077" >
<font-face units-per-em="2048" ascent="1536" descent="-512" />
<missing-glyph horiz-adv-x="546" />
<glyph horiz-adv-x="0" />
<glyph unicode="&#xd;" horiz-adv-x="122" />
<glyph horiz-adv-x="0" />
<glyph horiz-adv-x="0" />
<glyph unicode=" "  horiz-adv-x="546" />
<glyph unicode="&#x09;" horiz-adv-x="546" />
<glyph unicode="&#xa0;" horiz-adv-x="546" />
<glyph unicode="!" horiz-adv-x="792" d="M6 135q0 12 10.5 32.5t23.5 43t23.5 42t10.5 30.5q0 12 26.5 12t58 -14.5t58.5 -43t27 -71.5q0 -10 -9.5 -29.5t-21.5 -41t-21.5 -42.5t-9.5 -33q0 -14 -27.5 -14t-60.5 13.5t-60.5 42t-27.5 73.5zM168 571q-16 49 10.5 141.5t73.5 202t104.5 226t103.5 216t70.5 169 t8.5 86.5q-14 12 13.5 28.5t69.5 18.5t85 -18.5t61 -81.5q16 -53 -12.5 -143.5t-78.5 -196t-112.5 -216t-113 -208t-79 -172t-12.5 -105.5q8 -16 -13 -33.5t-55 -18.5t-70 21.5t-54 83.5z" />
<glyph unicode="&#x22;" horiz-adv-x="794" d="M72 813q2 37 13 89t26.5 112.5t29 115t22.5 96.5t5 58q-4 14 23.5 16.5t62.5 -8t64.5 -33t29.5 -57.5q2 -57 -28.5 -139t-73.5 -153.5t-89 -115.5t-75 -26q-12 8 -10 45zM481.5 813q1.5 37 13 89t27 112.5t28.5 115t22.5 96.5t5.5 58q-4 14 23.5 16.5t62 -8t64.5 -33 t30 -57.5q2 -57 -29 -139t-74 -153.5t-89 -115.5t-74 -26q-12 8 -10.5 45z" />
<glyph unicode="#" horiz-adv-x="1370" d="M82 692q4 10 70.5 7t171.5 -15q12 72 23 143.5t22 139.5q-63 23 -117.5 44t-93.5 40.5t-59.5 36t-16.5 28.5q2 6 26.5 8t65.5 0t96.5 -8t120.5 -14q12 86 17.5 144.5t1.5 70.5q-6 12 34.5 14t96 -7t104.5 -29.5t60 -53.5q6 -23 -0.5 -70t-22.5 -108q39 -6 76 -12.5 t73 -10.5q16 111 25.5 187t3.5 90q-6 12 35 14t96.5 -7t104.5 -29.5t59 -53.5q8 -29 -3 -91.5t-36 -148.5q61 -8 101 -10t51 2q12 6 14 -23.5t-7 -69.5t-28.5 -78t-50.5 -46q-20 -6 -60 -4t-94 12q-35 -100 -73 -188q121 -16 204 -25.5t95 -1.5q12 6 14 -23.5t-7 -69.5 t-28.5 -78t-50.5 -46q-33 -10 -119 2.5t-200 38.5q-47 -94 -87 -151.5t-61 -51.5q-14 4 -10 70t18 168q-66 18 -131 36.5t-127 39.5q-31 -68 -61.5 -127.5t-57 -102.5t-48 -65.5t-33.5 -18.5q-8 2 -9.5 33t2.5 81t12.5 117.5t20.5 143.5q-104 39 -166.5 73t-56.5 54z M545 655l221 -30l33 211l-170 47q-39 -115 -84 -228z" />
<glyph unicode="$" horiz-adv-x="1224" d="M39 121q-6 125 272 274q37 20 56 -14q6 -14 -1.5 -29.5t-23.5 -25.5q-125 -66 -172 -115t-49 -72q2 -12 16.5 -22.5t37 -18.5t50 -13t56.5 -5h6q41 117 108.5 283.5t141.5 347.5q-39 41 -77 82t-69 84t-47 89t-12 97q6 78 51 139.5t113.5 105.5t151.5 71.5t165 37.5 q10 37 8 41q-6 10 23.5 25.5t67.5 22.5t72 3t40 -34q2 -12 -8 -58q63 -10 98 -33q57 -33 62 -86q16 -125 -218 -288q-14 -10 -30.5 -9.5t-26.5 13.5q-8 14 -3 31.5t22 27.5q86 61 132 114.5t42 88.5q-4 23 -31 39t-74 22q-35 -100 -101.5 -247.5t-144.5 -309.5 q45 -53 85 -110.5t62.5 -120t19.5 -131t-42 -144.5q-37 -70 -100 -119t-139 -81.5t-156 -50t-149 -23.5q-29 -41 -48.5 -63.5t-29.5 -22.5q-12 2 14 84q-43 0 -83 9t-70.5 24.5t-49 38t-18.5 51.5zM381 92q84 23 156.5 78t115.5 135q43 78 35 146t-45 127 q-70 -141 -137.5 -266.5t-124.5 -219.5zM551 1046q21 -58 72 -124q45 111 82.5 208t66.5 168q-61 -25 -114.5 -61.5t-82.5 -77.5q-45 -55 -24 -113z" />
<glyph unicode="%" horiz-adv-x="1187" d="M76 1225q0 82 56 139t138 57t139.5 -57t57.5 -139t-57.5 -138.5t-139.5 -56.5t-138 56.5t-56 138.5zM145 20q-10 6 14.5 66.5t69.5 157t106.5 217.5t126 247t127 248.5t112 221t78 163t26.5 76.5q-2 8 16.5 7t48 -9t64.5 -23.5t65.5 -36t51 -43t20.5 -44.5 q2 -29 -35 -99.5t-96 -167t-138 -209t-162 -224t-166 -215t-150.5 -180.5t-115.5 -120t-63 -33zM711 201q0 82 56 139t138 57t139.5 -57t57.5 -139t-57.5 -138.5t-139.5 -56.5t-138 56.5t-56 138.5z" />
<glyph unicode="&#x26;" horiz-adv-x="1429" d="M47 203q2 61 40 145t93.5 170t117.5 167t110 138q-4 139 7 240.5t38 163.5q31 72 64.5 115.5t68.5 66.5t67.5 25t57.5 -9q72 -31 98.5 -83t19 -115.5t-39 -135t-76.5 -143t-95.5 -139.5t-93.5 -123q0 -39 4 -100.5t10.5 -128t14.5 -127t16 -99.5q37 39 76 96.5t78 136.5 t75 182.5t66 236.5q6 18 28.5 25t47.5 4t43 -15t12 -33q-35 -152 -84 -263.5t-104 -196.5t-110.5 -147t-102.5 -116q39 -150 99.5 -257t147.5 -165.5t205.5 -63.5t274.5 50q18 6 32.5 -18.5t19.5 -58.5t-1 -65.5t-24 -37.5q-109 -37 -211 -37q-66 0 -123 14 q-96 27 -174 87.5t-137.5 140.5t-103.5 172t-73 184q-53 -47 -136 -69.5t-160.5 -13.5t-132 57.5t-50.5 142.5zM276 225q-2 -72 22 -101.5t58.5 -30.5t73.5 20.5t70 56.5q-25 104 -38.5 211.5t-25.5 222.5q-66 -100 -110.5 -190t-49.5 -189zM489 907q20 23 49 64t58 87 t53.5 95t37.5 91t9.5 71t-30.5 37q-25 0 -63 -34t-75 -122q-16 -39 -26 -113.5t-13 -175.5z" />
<glyph unicode="'" horiz-adv-x="350" d="M53 813q2 37 13.5 89t27 112.5t28.5 115t22.5 96.5t5.5 58q-4 14 23.5 16.5t62 -8t64.5 -33t30 -57.5q2 -57 -29 -139t-74 -153.5t-89 -115.5t-75 -26q-12 8 -10 45z" />
<glyph unicode="(" horiz-adv-x="976" d="M55 303q0 162 60 334q59 174 168 324q117 160 266 274q164 127 352 195q16 6 31.5 -1.5t21.5 -23.5t-1 -31.5t-23 -21.5q-84 -35 -166 -112t-152.5 -181.5t-128 -228t-94.5 -255t-50 -260.5t4 -243.5t68.5 -206.5t141.5 -148q14 -10 22.5 -22t2.5 -29q-10 -28 -39 -28 q-4 0 -6.5 1t-6.5 1q-238 84 -356 266q-55 84 -85 184t-30 213z" />
<glyph unicode=")" horiz-adv-x="985" d="M31 -330q-6 16 1 31.5t23 22.5q84 35 166 111.5t152.5 180t128 228.5t94.5 255t50 260t-4 244.5t-68.5 207t-141.5 147.5q-14 10 -22.5 22.5t-1.5 28.5q9 29 38 29q4 0 6.5 -1t6.5 -1q238 -84 356 -267q55 -84 85 -184t30 -213q0 -162 -60 -334q-59 -174 -168 -323 q-117 -160 -266 -275q-164 -127 -352 -194q-16 -6 -31.5 1t-21.5 23z" />
<glyph unicode="*" horiz-adv-x="614" d="M55 831.5q-4 22.5 0 40t13 13.5q14 -10 52 19.5t87 74.5q-41 41 -76 69.5t-57 24.5q-10 -2 -15.5 12.5t-1.5 33t20.5 33.5t51.5 17q27 0 61.5 -19.5t73.5 -47.5q4 41 3 71.5t-13 43.5q-8 6 0 19t25.5 20.5t40 3t45.5 -30.5q12 -16 17 -41t7 -58q55 39 94 39 q35 -2 51.5 -17t20.5 -33.5t-1 -33t-15 -12.5q-23 4 -58 -24.5t-78 -69.5q49 -45 87 -75t55 -19q8 4 12 -13.5t0 -40t-21.5 -42t-52.5 -19.5q-27 -2 -55.5 13.5t-58.5 41.5q-4 -41 -2 -68.5t14 -31.5q8 -4 -3 -18.5t-31.5 -23.5t-47.5 -7t-47 31q-14 16 -19.5 43.5 t-5.5 62.5q-27 -20 -51 -32.5t-47 -10.5q-35 0 -52.5 19.5t-21.5 42z" />
<glyph unicode="+" horiz-adv-x="1054" d="M18 569q0 10 33 20.5t88.5 21t128 20.5t150.5 20q-8 63 -15.5 121.5t-14.5 104t-14 75t-14 35.5q-10 10 23 23.5t81 20.5t95 1t66 -35q23 -35 28.5 -122t1.5 -197q111 14 192 27.5t93 25.5q10 10 23.5 -22.5t20.5 -80.5t1 -95.5t-35 -65.5q-35 -23 -121 -29t-196 -2 q-10 -74 -22.5 -141.5t-27 -118.5t-29.5 -80.5t-32 -29.5q-10 0 -20 31.5t-20.5 85t-20.5 123t-19 145.5q-84 8 -160.5 21t-135 28.5t-93.5 33t-35 35.5z" />
<glyph unicode="," horiz-adv-x="522" d="M0 -160q-20 10 3.5 44t51 86.5t41 118.5t-25.5 144q-6 12 19.5 21.5t60 8.5t65.5 -15.5t37 -48.5q12 -78 -11.5 -151t-63.5 -126t-88 -77.5t-89 -4.5z" />
<glyph unicode="-" d="M8 569q0 14 64.5 29.5t164 30t215 28t218 26.5t175.5 24.5t85 23.5q10 10 23.5 -22.5t20.5 -80.5t1 -95.5t-35 -65.5q-33 -20 -115 -27.5t-185 -3.5t-215 16.5t-205 31t-152.5 41t-59.5 44.5z" />
<glyph unicode="." horiz-adv-x="421" d="M-84 135q0 12 10.5 32.5t23.5 43t23.5 42t10.5 30.5q0 12 26.5 12t58 -14.5t58.5 -43t27 -71.5q0 -10 -9.5 -29.5t-21.5 -41t-21.5 -42.5t-9.5 -33q0 -14 -27.5 -14t-60.5 13.5t-60.5 42t-27.5 73.5z" />
<glyph unicode="/" horiz-adv-x="1007" d="M63 20q-10 6 14.5 66.5t70 157t106.5 217.5t125.5 247t127 248.5t112 221t78 163t26.5 76.5q-2 8 16.5 7t48 -9t64.5 -23.5t65.5 -36t51 -43t20.5 -44.5q2 -29 -34.5 -99.5t-96 -167t-138.5 -209t-162 -224t-166 -215t-150.5 -180.5t-115.5 -120t-63 -33z" />
<glyph unicode="0" horiz-adv-x="1247" d="M118 423q1 116 34 239q18 66 49.5 146.5t77 164.5t103.5 165t132 143t162 101t190 41q80 2 148.5 -50t99.5 -138q29 -72 35 -163t-4 -202q-12 -72 -29.5 -147.5t-46.5 -149.5q-57 -156 -133 -274q-92 -133 -195 -209q-57 -43 -118.5 -64.5t-122.5 -23.5h-8 q-133 4 -215 62.5t-121 150.5t-38 208zM375 300q4 -87 34.5 -145.5t96.5 -70.5q92 -16 185 57.5t175 196.5q74 113 125 254t70 282q10 80 6 164t-25.5 153t-63.5 110.5t-106 35.5q-66 -6 -127 -60t-115.5 -140t-100.5 -194.5t-83 -223.5q-37 -113 -56 -222.5t-15 -196.5z " />
<glyph unicode="1" horiz-adv-x="854" d="M51 1016q-10 16 1 41.5t29.5 48t39 33t31.5 -3.5q16 -27 38.5 -39.5t53 -5t73.5 39t103 93.5q33 35 61.5 67.5t50 59t34.5 42.5l12 17q10 14 50 17.5t83 -1t74.5 -16.5t25.5 -29l-463 -1345q-6 -18 -47 -24.5t-87 -4.5t-81 13.5t-29 29.5l398 1153q-4 -8 -11.5 -15 t-13.5 -13q-41 -43 -80 -78t-73 -62q-37 -29 -76 -48t-76 -25.5t-67.5 6t-53.5 49.5z" />
<glyph unicode="2" horiz-adv-x="1171" d="M17 113q-11 47 8 98q12 31 35.5 63.5t61.5 59t89 45t117 22.5q76 2 161 -36q47 53 89.5 112.5t76.5 124.5q68 123 99.5 249t21.5 232q-4 63 -20.5 115.5t-48 83.5t-82 36t-119.5 -24q-16 -8 -31.5 -2t-21.5 23q-10 37 24 55q76 29 137 43h2q113 27 211 4 q137 -37 199 -168q43 -96 39 -227t-51 -272.5t-135 -278.5t-213 -246q51 -53 101 -114.5t99 -124.5q70 -88 139.5 -161t146.5 -113t169 -36t209 70q16 8 29.5 -18.5t19.5 -64.5t3 -75t-17 -47q-45 -31 -92.5 -42t-94.5 -11h-19t-20 2q-100 12 -202 84q-90 66 -173 162 t-163 198q-51 66 -101.5 126.5t-99.5 111.5q-49 -37 -104 -68q-74 -45 -140.5 -69.5t-122.5 -34.5q-68 -10 -108.5 4t-61.5 31q-35 31 -46 78zM97 139.5q1 -20.5 18 -33.5q23 -16 65.5 -2.5t88.5 44t88 72.5t67 79q-33 18 -70 20.5t-72.5 -5t-66.5 -22t-51 -28.5 t-35.5 -35.5t-24 -45t-7.5 -44z" />
<glyph unicode="3" horiz-adv-x="1232" d="M55 264q-4 45 4.5 90t24.5 92q39 94 119 162q39 33 89 57.5t102 34t99.5 -1t81.5 -47.5q12 -14 -2 -39.5t-37.5 -48t-49 -34t-33.5 7.5q-29 59 -87.5 59t-111.5 -47q-63 -53 -94 -129q-14 -35 -19.5 -70t-3.5 -67q10 -55 39 -101.5t82 -64.5q90 -31 182 11t166 126 t121 195.5t49 220t-50 198.5t-175 133q-23 10 -29 31q0 27 21 41l368 273h-485q-16 0 -28.5 11t-10.5 29q4 16 17.5 28.5t29.5 12.5h705q27 0 37 -28q2 -12 -3.5 -24.5t-17.5 -20.5l-401 -299q135 -59 200.5 -159.5t71.5 -216.5t-41 -235.5t-134 -216t-210 -157t-268 -60.5 q-41 0 -81 8.5t-73 24.5q-68 33 -108 88q-23 29 -36.5 62.5t-19.5 70.5z" />
<glyph unicode="4" horiz-adv-x="1521" d="M109 567q-4 10 0 19.5t8 21.5q27 86 108.5 193.5t202.5 216t273.5 209t319.5 174.5t340 108.5t337 14.5q16 -2 23.5 -17.5t0.5 -31.5q-6 -16 -21 -23.5t-32 -7.5q-106 -2 -234 -43t-262.5 -106.5t-263.5 -150.5t-238.5 -174t-189.5 -178.5t-112 -162.5h546l189 534 q6 20 47 27.5t87 5.5t81 -14.5t27 -32.5l-390 -1116q-6 -18 -47 -26.5t-86 -5.5t-79.5 15.5t-28.5 30.5l172 500h-748q-20 0 -30 20z" />
<glyph unicode="5" horiz-adv-x="1443" d="M51 285q4 20 35 32.5t63.5 16.5t58 -3t21.5 -26q-23 -94 23.5 -157.5t142.5 -63.5q111 0 200 60.5t148.5 149.5t86 193.5t16.5 192.5t-61.5 144.5t-147.5 52.5q-63 -4 -128 -39t-124 -80q-12 -10 -50 -11.5t-79 5t-69.5 17.5t-22.5 26l227 598q4 16 16.5 25t26.5 9h928 q16 0 26.5 -12t6.5 -29q-4 -18 -17.5 -29t-29.5 -11h-732l-172 -463q47 27 96.5 47t98.5 26q147 18 242.5 -10t146.5 -89.5t60.5 -146.5t-18.5 -178.5t-87 -185.5t-145 -166t-196 -123t-236 -57q-78 -4 -149 15.5t-121 57.5t-74.5 92t-10.5 120z" />
<glyph unicode="6" horiz-adv-x="1140" d="M53 540q23 136 84 271q63 139 164.5 265t233 215t289 127t333.5 -1q16 -4 24.5 -17.5t2.5 -29.5q-4 -16 -19.5 -25.5t-31.5 -7.5q-102 12 -199.5 -17.5t-183.5 -86.5t-162 -137t-133.5 -170t-97.5 -183.5t-56 -175.5q70 72 172 113t207 37q70 -2 126 -26.5t95 -64.5 t57.5 -93.5t10.5 -114.5q-10 -76 -53.5 -147.5t-108 -128t-144 -95.5t-161.5 -47q-72 -8 -141.5 7.5t-128 52t-104 95t-65.5 136.5q-33 113 -10 249zM262 313q2 -96 42 -150t101.5 -71.5t135 -2.5t141.5 55t122 101.5t77 139.5q8 33 6 73t-22.5 75.5t-62.5 62.5t-114 35 q-61 6 -132 -19.5t-134.5 -71.5t-107.5 -107t-52 -120z" />
<glyph unicode="7" horiz-adv-x="1323" d="M123 1217l108 182q18 25 41 24l961 7q29 0 43 -9.5t17 -23t-3 -27.5t-18 -22q-18 -12 -56 -49t-86.5 -87.5t-101.5 -112t-102 -121.5t-89 -117.5t-61 -100.5l203 -2q16 -2 26.5 -14.5t6.5 -28.5q-2 -16 -15.5 -27.5t-29.5 -11.5l-242 4q-78 -131 -158 -292t-151 -355 q-8 -23 -49 -30t-86 -3t-79 17.5t-26 33.5q63 170 136 327t161 304l-166 2q-16 0 -26.5 12.5t-8.5 28.5q4 16 17.5 28.5t29.5 12.5l203 -4q43 72 100.5 152.5t121 159.5t128 148.5t119.5 120.5l-579 -2l-97 -159q-10 -18 -46 -21.5t-72.5 3.5t-61 21.5t-12.5 31.5z" />
<glyph unicode="8" horiz-adv-x="1280" d="M60 239.5q1 69.5 42 141.5q66 117 226 219q53 35 107 62.5t114 54.5q-35 27 -65.5 53.5t-55.5 58.5q-84 109 -55 230q16 72 67.5 139.5t128.5 118.5q74 51 162 79.5t172 28.5q49 0 96 -12h2q106 -25 160 -100q37 -53 35 -124t-43 -142q-33 -57 -90 -113.5t-139 -108.5 q-25 -16 -51.5 -30.5t-55.5 -30.5q8 -4 13.5 -8t11.5 -8q47 -35 91 -71t79 -81q84 -106 55 -229q-16 -70 -66.5 -138.5t-130.5 -119.5q-76 -49 -192.5 -78t-233 -31t-215 24.5t-137.5 88.5q-33 57 -32 126.5zM141 255q-2 -48 27 -87q27 -41 80 -62.5t121 -21.5 q70 0 144.5 23.5t135.5 64.5q59 41 100.5 92t51.5 103q12 53 -5.5 98t-39.5 74q-29 35 -66 66.5t-76 60.5q-66 -29 -129 -62t-123 -69q-68 -43 -114.5 -89.5t-75.5 -93.5q-29 -49 -31 -97zM639 1059q-10 -53 6.5 -98.5t38.5 -73.5q14 -18 32.5 -37t37.5 -35q72 35 139 76 q68 45 124 101.5t79 103.5q16 39 17 78.5t-15.5 73.5t-50 55.5t-89.5 21.5q-45 0 -96 -21.5t-97 -58.5t-81 -85t-45 -101z" />
<glyph unicode="9" horiz-adv-x="1245" d="M29 76q4 16 19 25.5t32 7.5q102 -12 199.5 17.5t183.5 86.5t161.5 137t133 170t97.5 183.5t56 175.5q-70 -72 -172 -113t-207 -37q-70 2 -126 26.5t-95 64.5t-57 93.5t-10 114.5q10 76 53 147.5t107.5 128t144.5 94.5t162 48q72 8 141.5 -7.5t127.5 -52t102 -95 t67 -136.5q33 -113 10.5 -249t-84.5 -271q-63 -139 -164.5 -265t-232.5 -215t-289 -127t-334 1q-16 4 -24 17t-2 30zM325 987q3 -39 23.5 -74.5t62.5 -62.5t113 -35q61 -6 132 19.5t134.5 71.5t107.5 107t52 120q-2 96 -42 150t-101.5 71.5t-135 2t-141 -55t-122 -102 t-76.5 -138.5q-10 -35 -7 -74z" />
<glyph unicode=":" horiz-adv-x="522" d="M47 84q0 35 26.5 59.5t65.5 24.5t65.5 -24.5t26.5 -59.5t-26.5 -59.5t-65.5 -24.5t-65.5 24.5t-26.5 59.5zM240 780q0 35 26.5 59.5t65.5 24.5t65.5 -24.5t26.5 -59.5t-26.5 -59.5t-65.5 -24.5t-65.5 24.5t-26.5 59.5z" />
<glyph unicode=";" horiz-adv-x="522" d="M0 -160q-20 10 3.5 44t51 86.5t41 118.5t-25.5 144q-6 12 19.5 21.5t60 8.5t65.5 -15.5t37 -48.5q12 -78 -11.5 -151t-63.5 -126t-88 -77.5t-89 -4.5zM240 780q0 35 26.5 59.5t65.5 24.5t65.5 -24.5t26.5 -59.5t-26.5 -59.5t-65.5 -24.5t-65.5 24.5t-26.5 59.5z" />
<glyph unicode="&#x3c;" horiz-adv-x="600" d="M20 655q-2 16 24 45t64.5 64t87 74t90.5 73.5t73.5 63.5t37.5 43q6 12 30 -2.5t45.5 -43t31.5 -64.5t-10 -64q-18 -27 -49 -53.5t-70 -51t-83 -47t-85 -37.5q41 -16 85 -36.5t83 -45t69.5 -51t49.5 -53.5q20 -29 10 -64.5t-31.5 -64.5t-45.5 -43t-30 -2q-6 14 -37.5 42 t-73.5 62.5t-90.5 73.5t-87 74t-64.5 64.5t-24 43.5z" />
<glyph unicode="=" horiz-adv-x="1107" d="M18 487q0 14 64.5 29.5t164 30t215.5 28t218 26.5t175 24.5t85 23.5q10 10 23.5 -22.5t20.5 -80.5t1 -95.5t-35 -65.5q-33 -20 -114.5 -27.5t-185 -3.5t-215 16.5t-205 31t-153 41t-59.5 44.5zM18 918q0 14 64.5 29.5t164 29.5t215.5 27.5t218 26.5t175 24.5t85 23.5 q10 10 23.5 -22.5t20.5 -80.5t1 -95t-35 -66q-33 -20 -114.5 -27.5t-185 -3.5t-215 16.5t-205 31t-153 41t-59.5 45.5z" />
<glyph unicode="&#x3e;" horiz-adv-x="600" d="M96 404.5q-10 35.5 10 64.5q18 27 49 53.5t70 51t83 45t85 36.5q-41 14 -85 37t-83 47.5t-69.5 51t-49.5 53.5q-20 29 -10 64.5t32 64t45.5 43t29.5 2.5q6 -14 37.5 -43t73.5 -63.5t90.5 -73.5t87 -74t64.5 -63.5t24 -45.5q2 -16 -24 -44.5t-64.5 -63.5t-87 -74 t-90.5 -73.5t-73.5 -62.5t-37.5 -42q-6 -12 -29.5 2t-45.5 43t-32 64.5z" />
<glyph unicode="?" horiz-adv-x="935" d="M47 135q0 12 10.5 32.5t23.5 43t23.5 42t10.5 30.5q0 12 26.5 12t58 -14.5t58.5 -43t27 -71.5q0 -10 -9.5 -29.5t-21.5 -41t-21.5 -42.5t-9.5 -33q0 -14 -27.5 -14t-60.5 13.5t-60.5 42t-27.5 73.5zM58.5 1245.5q0.5 16.5 11.5 28.5q33 41 82 93t105 104.5t116.5 98.5 t120 72.5t111.5 29.5t93 -30q59 -49 54.5 -140t-46.5 -202.5t-105.5 -233.5t-121 -230.5t-94.5 -193.5t-27 -124q6 -18 -19.5 -32.5t-60 -13.5t-68.5 22.5t-44 74.5q-12 57 23.5 136t92 166t122 176.5t115.5 168t69.5 140t-15.5 94.5q-29 27 -83 15.5t-118.5 -48.5t-130 -91 t-114.5 -112q-12 -14 -29.5 -12t-29.5 15q-10 12 -9.5 28.5z" />
<glyph unicode="@" horiz-adv-x="1251" d="M-20.5 729q22.5 133 81 256t147.5 225.5t200.5 165t240.5 75.5t266 -42q92 -37 148.5 -97.5t84.5 -134t29 -155.5t-18 -162q-18 -82 -49 -155.5t-72 -130t-93 -89t-111 -32.5q-70 0 -127 79q-35 -53 -78 -98t-94 -61q-29 -10 -54.5 -6t-52.5 16q-59 29 -82.5 98.5 t-16.5 154.5t39.5 174t87 159.5t127 110.5t158.5 26q37 -6 56.5 -40t29.5 -79q8 -41 4 -92t-22 -107q-4 -16 -19.5 -25t-31.5 -5t-23.5 18.5t-3.5 30.5q29 92 19.5 153.5t-39.5 67.5q-23 4 -55.5 -33t-65.5 -96t-61.5 -132t-46 -138.5t-17.5 -113.5t27 -60q18 -10 41.5 2 t49 39.5t51 67.5t50.5 85q2 8 8 15q12 20 32.5 25t41 0t34 -18.5t11.5 -27.5q-8 -41 6 -76t49 -30q31 2 64 28.5t62.5 72.5t53 107.5t35.5 133.5q12 74 9 146.5t-25.5 135t-65.5 107.5t-112 61q-90 23 -179.5 -11t-168 -106.5t-144 -175t-109.5 -216t-62.5 -229.5t-5.5 -214 t64.5 -172t145.5 -105q43 -12 98.5 -15t119 15.5t131 64.5t132.5 130q10 14 26.5 17t29.5 -7q14 -10 16 -26.5t-10 -30.5q-70 -90 -157 -147.5t-185 -80.5q-29 -8 -57.5 -11t-57.5 -3q-63 0 -120.5 17.5t-110.5 44.5q-133 68 -206 174t-96.5 230t-1 257z" />
<glyph unicode="A" horiz-adv-x="1898" d="M-182 520q8 106 50 207.5t112 181.5q74 86 176 135q102 53 233 58q12 1 24 0q124 0 199 -58q72 -57 82 -149v-6q68 -16 131.5 -30.5t137.5 -37.5q86 147 173 297t181 260q47 55 91 96.5t91 69.5q106 66 217 66q88 0 129 -62q30 -47 30 -124v-14q-3 -87 -44 -228 q-35 -119 -87 -257.5t-112 -289.5q55 -10 98.5 -17.5t77.5 -9.5q21 -2 36 -2q18 0 30 3q20 5 29 9q2 0 4 3v2q6 16 20.5 26t30.5 6q31 -8 31 -34q0 -7 -2 -15q-12 -39 -50 -57q-38 -23 -109 -23h-12q-80 2 -210 31h-2q-70 -174 -131.5 -345t-102.5 -331q-12 -49 -22 -121 q-9 -65 -8 -134v-15q1 -78 13.5 -152.5t42.5 -132.5q32 -57 82 -88q36 -22 83 -22q20 0 43 4q20 2 32.5 -5.5t15.5 -18.5t-4.5 -23.5t-25.5 -18.5q-71 -23 -142 -23q-38 1 -74 7q-106 18 -188 80q-84 62 -134 160q-47 91 -46 205v18q0 135 49 329q45 166 110 342.5 t136 354.5q-84 23 -168 48t-166 50q-66 -115 -136 -221.5t-148 -198.5q-231 -266 -490 -268h-4q-207 0 -319 149q-48 66 -70 151q-16 62 -16 131q0 25 2 52zM99 410q1 -72 19.5 -133.5t61.5 -103.5t121 -42q82 0 165 55.5t163 144.5t153.5 197.5t137.5 216.5q-63 18 -121 33 t-117 29q-10 -31 -25 -53q-49 -72 -125 -95q-46 -15 -78 -15q-18 0 -32 5q-38 13 -51 27q-25 24 -25 59q0 17 6 37q12 41 52 75t96 50q23 7 58 7q23 0 50 -3q-8 35 -37.5 71t-83.5 38h-8q-85 0 -151 -43q-68 -45 -115 -116t-73.5 -154t-35.5 -156q-5 -51 -5 -111v-20z M1040 799q82 -23 163 -47.5t163 -46.5q57 147 107.5 280t80.5 244q14 49 26.5 94t19 79t3 56.5t-21.5 26.5q-6 2 -13 2q-26 1 -56 -23q-40 -30 -87 -83.5t-99 -126t-103.5 -151.5t-98.5 -157.5t-84 -146.5z" />
<glyph unicode="B" horiz-adv-x="1906" d="M0 586q-2 25 -2 50q0 88 28 178q36 116 108.5 226.5t166.5 196.5q84 78 188.5 137.5t200.5 93.5t200 50q87 13 173 13h33q104 -3 201.5 -25.5t181.5 -63.5q121 -59 198.5 -149.5t108.5 -207.5q19 -70 19 -142q0 -89 -29 -183q-51 -156 -172 -289q-49 -59 -108.5 -106.5 t-125.5 -85.5q14 -20 28.5 -40t24.5 -42q246 88 486 147q16 4 29.5 -5.5t15.5 -25.5q4 -16 -6.5 -30.5t-26.5 -18.5q-113 -27 -228.5 -62.5t-232.5 -76.5q2 -2 2 -4q53 -109 66 -234q3 -29 3 -57q0 -150 -80 -284q-95 -160 -296 -283q-109 -66 -236.5 -113t-254.5 -65 q-78 -12 -146 -13q-20 0 -38.5 1t-35.5 3q-104 12 -163 56q-75 56 -85 120q-4 26 -4 50q0 33 9 61q23 82 92 163t159.5 153.5t186.5 133t172 103.5q147 84 315 158q-12 27 -24 51.5t-29 46.5q-47 -8 -91 -8t-89 4q-70 8 -113 55q-29 35 -29 79q0 13 3 28q6 35 28.5 69.5 t63.5 59.5l4 4q61 39 154 39q96 0 192 -62q100 84 170 197q23 37 43.5 83t33.5 100t14 114v6q0 57 -17 119q-35 129 -111 213t-175 126q-94 40 -204 40h-10q-115 -2 -227 -47q-111 -45 -195 -123t-141.5 -171t-90.5 -195q-32 -100 -39 -192q-2 -27 -2 -52q0 -62 12 -114 q17 -74 58 -110q14 -14 9 -30.5t-23 -32t-46 -25.5t-58.5 -11t-61.5 10t-53 42q-72 87 -82 199zM281 -651q-5 -25 -5 -46q0 -28 9 -49q16 -36 51 -53.5t84 -19.5h18q41 0 83 7q52 9 102.5 25.5t91.5 34.5q145 66 248 154q43 37 85 84t74 106q34 58 50 128q11 47 11 100 q0 25 -3 51q-6 68 -25 129q-84 -37 -160.5 -76t-148.5 -80q-117 -66 -216.5 -132t-170.5 -130q-149 -131 -178 -233zM369 111q-6 19 -6 45q0 40 15 96q25 92 71.5 202.5t102.5 227.5t102 216t70 169q14 41 14 63q0 16 -7 23q-10 8 4.5 19.5t40.5 18.5t60 9h14q26 0 51 -6 q31 -8 53.5 -30.5t26.5 -63.5q2 -18 2 -36q1 -63 -21 -132q-28 -90 -74 -185.5t-100.5 -191.5t-101.5 -186q-48 -90 -78 -170q-27 -71 -26 -127v-15q0 -18 -26 -35.5t-61.5 -17.5t-71.5 23t-54 84z" />
<glyph unicode="C" horiz-adv-x="1570" d="M-58 78q8 112 35 217q51 180 113 334.5t142.5 289t183 254t233.5 230.5q43 37 114 73q71 38 153 56q50 11 102 11q33 0 67 -5q86 -12 160 -76q57 -49 92 -142t35 -200.5t-40 -217t-130 -189.5q-23 -20 -56 -20q-9 0 -20 2q-47 7 -87 31t-58 55.5t12 56.5 q57 45 101.5 116.5t69 149.5t26.5 150v11q0 65 -23 109q-19 32 -56 32q-9 0 -18 -2q-51 -9 -121.5 -59.5t-152.5 -136.5t-164 -200q-61 -86 -114.5 -185.5t-95.5 -197t-73.5 -187.5t-49.5 -159q-37 -135 -37 -252t29.5 -206t87.5 -145q56 -56 134 -70q22 -4 47 -4 q59 0 127 23q96 33 203 121q82 68 167 160t168 203.5t162 239.5t151 267q14 26 36 26q10 0 21 -5q16 -6 20 -21.5t-6 -31.5q-37 -74 -80 -150t-88 -148.5t-90 -139t-88 -121.5q-158 -207 -323 -342q-156 -125 -308 -181q-53 -23 -111.5 -33t-113.5 -10q-66 0 -129 16.5 t-117 51.5q-94 55 -149 143t-78 192q-17 78 -17 161q0 27 2 55z" />
<glyph unicode="D" horiz-adv-x="2244" d="M-14 430q-4 32 -5 66q0 81 25 172q35 129 117 267t206 258t286.5 208t361.5 121q122 20 232 20q107 0 205 -19q198 -38 328 -168q130 -131 182 -359q27 -118 27 -264q0 -139 -24 -304q-6 -47 -15 -91t-20 -87l392 92l8 2q18 4 31.5 -5.5t11.5 -25.5q2 -16 -10.5 -30.5 t-28.5 -18.5l-10 -2l-416 -98q-43 -147 -105.5 -275.5t-142.5 -232.5q-111 -139 -250 -252t-301 -190q-141 -70 -285.5 -109t-277.5 -43q-68 0 -133.5 6t-116.5 25q-113 41 -147 119q-32 64 -32 129q0 77 46 155q84 143 332 281q211 113 544 225q123 41 253 79t264 73 q20 66 34.5 132t24.5 138q24 153 24 290q1 76 -7 148q-20 200 -107 336q-76 121 -183.5 182.5t-227.5 67.5q-14 1 -29 1q-105 0 -209 -39q-118 -44 -217 -136q-80 -74 -143.5 -167t-111 -192.5t-77 -195.5t-39.5 -177q-5 -43 -6 -79q0 -33 5 -61q9 -58 40 -80 q33 -25 19.5 -52.5t-51.5 -43.5q-31 -13 -70 -14q-10 0 -20 1q-52 4 -97 45q-70 63 -84 172zM186 -741q29 -59 79 -84t111.5 -25t130 18.5t134.5 45t123 56.5t98 54q223 131 382 312.5t247 429.5q-125 -33 -245 -69t-232 -73q-686 -227 -819 -459q-32 -54 -33 -110 q1 -47 24 -96zM453 111q-6 19 -6 45q0 40 15 96q25 92 71.5 202.5t102.5 227.5t102 216t70 169q14 42 13 64q0 15 -6 22q-10 8 4.5 19.5t40.5 18.5t60 9h14q26 0 51 -6q31 -8 53.5 -30.5t26.5 -63.5q2 -18 1 -36q0 -63 -20 -132q-28 -90 -74 -185.5t-100.5 -191.5 t-101.5 -186q-48 -90 -78 -170q-27 -71 -26 -127v-15q0 -18 -26 -35.5t-61.5 -17.5t-71.5 23t-54 84z" />
<glyph unicode="E" horiz-adv-x="1679" d="M106 133q20 92 66.5 183.5t114.5 170.5q55 66 137 124.5t182 103.5q-10 16 -17 33.5t-14 37.5q-24 77 -24 159q1 15 1 31q6 98 40 191q35 92 94 167t137 122q37 23 89.5 44.5t113.5 31.5q47 8 99 8q15 0 31 -1q70 -3 144 -28q92 -33 168 -98t122 -146t58 -168 q3 -22 3 -42q0 -63 -27 -121q-10 -23 -37.5 -33t-60.5 -12q-8 -1 -17 -1q-25 0 -50 5q-34 6 -58.5 18.5t-32.5 30t10 37.5q46 51 62 113q13 50 13 97q0 11 -1 23q-4 60 -30.5 110t-67.5 78t-98.5 28t-122.5 -44q-70 -43 -120 -108.5t-79 -143t-34 -161.5q-1 -14 0 -28 q0 -69 20 -136q0 -2 1 -2t1 -2q51 6 95 7q26 0 50 -3q37 -2 73 -12.5t65.5 -26.5t50 -38.5t24.5 -49.5q2 -16 -2 -36.5t-25 -43.5q-16 -14 -36.5 -27.5t-49.5 -23.5l-37 -14q-70 -21 -144 -21q-19 0 -38 1q-94 7 -176 46q-2 0 -3 1t-3 1q-92 -59 -152 -129 q-59 -74 -101 -155.5t-60 -165.5q-11 -43 -13 -86q-1 -13 0 -25q0 -30 4 -59q10 -90 56 -164q66 -111 152 -163t180 -54h8q90 0 179 43q93 45 173 133q45 49 74.5 110.5t35.5 121.5q2 16 2 32q0 44 -14 84q-18 55 -67 94q-43 33 -99 42q-20 3 -41 3q-35 0 -69 -10 q-53 -16 -94 -58t-54 -110q-4 -29 -42 -40q-32 -9 -67 -9h-13q-42 2 -76.5 17.5t-32.5 43.5q2 57 41 106.5t98.5 84.5t133 54.5t145 19.5t136 -21.5t105.5 -68.5q48 -55 70 -124q17 -54 17 -110q0 -16 -1 -32q-6 -72 -37.5 -145t-89.5 -138q-68 -78 -158.5 -133.5 t-187.5 -79.5q-49 -10 -98 -17.5t-100 -7.5t-101.5 7t-97.5 20q-229 66 -348 262q-70 121 -70 263q0 64 14 132z" />
<glyph unicode="F" horiz-adv-x="1816" d="M-12 977q6 104 46 193.5t104.5 160t147.5 120.5t179 77q68 17 162 17h29q112 -3 242 -20.5t267.5 -44t264 -52t235.5 -45t178 -21.5l52 -2q64 0 122 8q82 10 142.5 32.5t92.5 58.5q25 28 25 64q0 10 -2 21q-4 20 32 20q1 0 2 1q35 -1 80 -21q46 -20 85 -60.5t43 -99.5 v-15q0 -29 -6 -61q-8 -40 -35 -75t-78 -59.5t-133 -26.5q-12 -1 -25 -1q-80 0 -199 22q-138 24 -304 60t-342 77t-338 73q-162 34 -293 50q-76 10 -132 9q-41 0 -71 -5q-55 -10 -104 -35t-86 -59.5t-59.5 -76.5t-24.5 -87q-1 -10 -1 -19q0 -43 15 -79q18 -44 53 -72 q35 -30 84 -42q26 -7 55 -6q25 0 52 5q20 4 5 -29t-55 -76t-100.5 -81t-128.5 -44q-12 -1 -23 -1q-49 0 -91 14q-52 16 -90 48t-58 80q-16 39 -17 86q0 9 1 19zM174 324q6 76 53 118.5t122 63t172 21.5h22q87 0 184 -7q43 119 82 228.5t65 195.5q28 86 40 142q6 27 6 43 q0 17 -7 24q-10 8 5.5 19.5t44 18.5t65.5 9h15q29 0 55 -6q32 -8 57 -30.5t29 -63.5q1 -12 1 -25q-1 -39 -9 -87q-12 -64 -33 -143t-52.5 -169t-66.5 -184q90 -6 185 -6h15q102 0 187.5 11t141 30.5t61.5 52.5q4 31 23.5 31.5t37 -15.5t22.5 -43t-20 -49q-25 -23 -77 -46.5 t-137 -44t-205.5 -32.5t-282.5 -14q-51 -129 -101.5 -255t-90.5 -237q-41 -111 -65 -198q-21 -75 -21 -121q0 -8 1 -15q0 -18 -28.5 -35.5t-67.5 -17.5t-79 22.5t-58 83.5q-6 16 -6 41q0 30 8 72q14 78 44 182.5t72 228.5t89 251q-86 -2 -161 -8.5t-130 -21.5t-88 -41 t-35 -67q-2 -29 -16.5 -38t-31.5 3q-16 10 -28 42q-9 23 -9 60q0 12 1 26z" />
<glyph unicode="G" horiz-adv-x="1927" d="M14 315v10q0 125 47 263q39 111 87.5 211t107.5 194q106 168 240 301q59 59 131.5 111.5t150.5 86.5t158 44q24 3 47 3q55 0 109 -17q94 -31 161.5 -89.5t102.5 -128.5q34 -69 34 -143q0 -78 -44 -147q-12 -18 -39 -22.5t-58.5 -1.5t-65.5 13.5t-59.5 22.5t-38 25.5 t-2.5 23.5q51 51 71 109q16 45 16 84q0 11 -2 22q-5 49 -29.5 86t-59.5 51q-23 9 -48 9q-30 0 -61 -13q-59 -24 -121.5 -82.5t-124.5 -144.5t-119.5 -187.5t-109 -214t-89.5 -223.5q-52 -152 -52 -262v-13q4 -114 54 -167q40 -43 106 -43q15 0 31 2q88 12 200 102 q133 104 266.5 268.5t260.5 370.5q8 14 37.5 25.5t69.5 20t85 12.5q22 2 42.5 2t38.5 -2q36 -4 59.5 -15.5t21.5 -33.5q-12 -135 -38.5 -300t-78.5 -343q88 18 162 31.5t128 22.5t86 14l32 5q39 4 43 -35q-2 -16 -13.5 -29.5t-29.5 -17.5q-2 0 -35 -5t-91 -14t-137 -23.5 t-171 -34.5q-29 -94 -66 -186.5t-82 -180.5q-143 -281 -340 -453q-223 -199 -510 -262q-53 -12 -104 -12q-63 0 -109 14q-96 27 -155 103q-51 68 -56 161q-1 10 -1 20q0 89 49 187q96 203 407 367q117 61 264.5 118.5t325.5 108.5q49 147 81 287.5t52 257.5 q-43 -66 -88 -126t-90 -114q-133 -162 -270 -270q-117 -92 -225.5 -140t-207.5 -48q-10 0 -19 1t-20 1q-164 18 -249 157q-25 47 -39.5 100.5t-16.5 114.5zM186 -813q23 -29 73 -31h9q47 0 108 18q66 21 142 64t150 105q78 66 144.5 153.5t118.5 180t88 178.5t52 147 q-369 -111 -593 -244t-296 -284q-40 -84 -40 -156q0 -77 44 -131z" />
<glyph unicode="H" horiz-adv-x="2437" d="M12 907q4 72 39 132.5t91.5 106.5t129.5 76q72 30 150 44q51 9 102 9q26 0 52 -2q76 -7 143 -34q80 -33 140.5 -85t115.5 -107l20 -19q16 -18 35 -35.5t39 -34.5q10 35 22.5 72t28.5 72q49 117 133 203t193 127q76 30 150 30q14 0 27 -2q87 -6 157 -49q29 -12 50 -34.5 t32 -53.5q13 -33 13 -71q0 -28 -7 -58q-12 -59 -49 -131q-29 -53 -66 -99t-82 -81q-98 -82 -225 -111q-16 -4 -30.5 -6t-31.5 -4q-27 -131 -57.5 -267.5t-89.5 -267.5q111 -10 213 -14q51 -2 100.5 -2t98.5 2q25 186 102.5 363.5t198.5 335t277.5 293.5t339.5 241.5 t387 174.5t419 95q104 12 198 12h27q106 -2 181 -21t115 -57q30 -29 30 -67q0 -13 -4 -27q-14 -53 -61.5 -87.5t-94.5 -50.5q-36 -12 -61 -11q-7 0 -15 1q-30 5 -10 32q37 51 37 89q1 15 -5 27q-20 46 -84 68q-56 19 -137 20h-26q-98 -4 -205 -34q-227 -66 -425.5 -192 t-359.5 -301t-279.5 -393t-186.5 -468q250 57 401 174q15 11 29 11q16 0 29 -15q10 -14 6 -30.5t-18 -26.5q-178 -141 -465 -197q-16 -94 -16 -183q1 -47 5 -95q14 -134 56 -250q10 -29 -8.5 -48.5t-53.5 -32t-80 -15.5q-18 -1 -35 -1q-26 1 -51 3q-41 4 -73.5 18t-40.5 37 q-37 90 -50 170q-14 79 -15 145v26q0 50 3 93q4 53 4 92q-45 -2 -92 -2q-58 0 -116 3q-106 5 -224 15q-25 -47 -50.5 -89t-53.5 -83q-72 -98 -159 -176t-183 -131q-133 -72 -260 -82q-8 -2 -16.5 -2h-18.5q-74 0 -135 25q-2 2 -4 2q-33 14 -52 31q-48 35 -72 86 q-23 47 -22 103v9q2 63 29.5 129t79.5 123q41 49 99 88t124 66q55 23 114.5 34t122.5 13q43 0 82 -4t80 -10q31 74 50.5 146.5t34 146t26.5 146.5t29 146q-33 23 -59.5 48.5t-55.5 52.5q-4 6 -9 11t-10 9q-53 53 -108 101.5t-125 76.5q-73 30 -147 30h-13q-80 -3 -143.5 -38 t-103.5 -100.5t-42 -155.5q0 -27 -34.5 -40t-76.5 -13t-76 15.5t-32 45.5zM260 -150v-9q0 -37 14 -73q16 -40 52 -59q35 -19 72 -19q20 0 40 6q60 16 118 57.5t112.5 102t96.5 124t70.5 122t36.5 97.5q-61 12 -131 12h-6q-115 -4 -207 -39q-115 -47 -186 -129 q-39 -43 -60.5 -94.5t-21.5 -98.5zM1401 846q16 0 39 6q102 23 186 90q72 61 121 152q16 29 25.5 55t15.5 49q4 20 4 39q0 26 -8 47q-16 41 -47 51q-18 6 -37 6q-25 0 -51 -10q-31 -12 -66 -39q-14 -14 -28.5 -29.5t-24.5 -31.5q-25 -35 -40 -73t-30 -75 q-18 -59 -32.5 -118.5t-26.5 -118.5z" />
<glyph unicode="I" horiz-adv-x="1464" d="M2 -317q-3 16 -3 33q0 20 4 40q7 38 24 80q16 43 45.5 86t66.5 82q49 45 129 82t159 47q22 3 43 3q52 0 96 -18q67 -28 67 -107q-1 -33 -27 -55q-28 -24 -64 -33q-19 -5 -37 -5q-16 0 -31 4q-32 8 -34 43q-4 63 -30 81q-16 11 -37 10q-13 0 -27 -4q-37 -11 -78 -41.5 t-75 -63.5q-33 -29 -55.5 -63t-35.5 -68q-14 -35 -15 -78v-6q1 -40 13 -74q14 -37 42 -62.5t77 -25.5q4 0 8 -1q109 -1 200 55q95 56 175 155.5t146.5 237t119.5 296.5q43 127 75 269.5t50 300.5q18 135 23.5 248.5t5.5 199.5q-160 -72 -304.5 -162t-242.5 -213 q-35 -46 -63 -108q-24 -55 -23 -103v-14q6 -57 49 -86q31 -24 67 -24q2 1 4 1q38 2 71.5 19.5t57.5 50.5t30 74q4 25 31.5 30t57 -6.5t53.5 -36t17 -55.5q-8 -47 -61 -85t-122 -57q-60 -16 -121 -16h-19q-72 3 -119 35q-68 49 -78 140q-1 12 -1 23q0 28 6 56q10 40 25 77.5 t35.5 71.5t41.5 58q123 160 364 293q25 14 78 45t118.5 67t134.5 70q69 32 126 52q52 18 86 18h7q36 -2 38 -35q3 -74 3 -156q0 -41 -1 -85q-2 -130 -16 -269q-18 -166 -50 -325.5t-79 -300.5q-111 -352 -293 -574q-215 -264 -508 -329q-52 -12 -106 -12q-2 0 -5 -1 q-51 -1 -99 11q-50 12 -92 35.5t-69 58.5q-43 49 -49 119z" />
<glyph unicode="J" horiz-adv-x="1787" d="M-53 -629v7q0 91 47 198q96 203 405 367q119 63 266.5 120.5t325.5 108.5q23 66 40.5 127t33.5 119q66 260 96 528q12 104 19.5 201.5t7.5 187.5q-102 -45 -203.5 -95t-196 -107.5t-177.5 -125t-146 -147.5q-23 -27 -43.5 -60.5t-35.5 -69.5t-24 -72q-6 -30 -6 -57v-13 q6 -70 58 -107q34 -26 69 -26q9 0 18 1q44 9 78.5 39.5t57 73.5t22.5 80q0 31 29 35t61.5 -8t55 -38t14.5 -54q-18 -59 -71.5 -109.5t-121 -78t-139 -27.5t-129.5 43q-78 59 -84 159q-1 12 -1 23q0 34 9 68q11 47 30.5 91t43 82.5t47.5 69.5q78 96 185.5 181t251.5 165 q18 10 76.5 46t134 79t160.5 86t156 70q67 26 113 26h5q47 -2 49 -45q2 -33 3 -91q1 -29 1 -63.5t-1 -73.5q-1 -79 -6 -172t-15 -198q-33 -344 -121 -643q88 18 163.5 31.5t130 23t85.5 13.5l30 4q18 4 29.5 -7.5t11.5 -27.5t-12 -29.5t-29 -15.5l-34 -5q-33 -5 -90.5 -14 t-137.5 -24.5t-172 -36.5l-4 -8q-66 -205 -155 -374t-199 -302q-266 -311 -643 -395q-53 -12 -107 -13h-7q-51 0 -101 15q-47 14 -86 40t-66 62q-51 68 -55 162zM66 -449q-40 -84 -40 -155q0 -74 44 -133q28 -30 79 -30q13 0 27 2q70 9 151 46t158.5 92.5t124.5 108.5 q123 135 206 286.5t142 311.5q-369 -111 -594 -245t-298 -284z" />
<glyph unicode="K" horiz-adv-x="2514" d="M-2 924q0 68 31.5 129t85 112.5t124 87t148.5 51.5q57 12 116 13q21 0 43 -2q81 -6 156 -39q49 -20 100.5 -59t100.5 -84.5t92 -89.5t76 -72q16 66 36.5 122t51.5 103q80 133 169 195.5t157 85.5q41 14 86 18q22 2 43.5 2t42.5 -2q41 -4 74.5 -15.5t62.5 -27.5 q57 -27 80 -88q10 -28 10 -63q0 -31 -8 -68q-8 -31 -20.5 -64.5t-32.5 -68.5q-33 -55 -72 -103.5t-86 -85.5q-53 -41 -112.5 -69.5t-122.5 -42.5q-16 -4 -31 -6t-31 -5q-14 -92 -35.5 -182t-52.5 -182q147 4 287.5 61.5t264.5 148.5t227.5 205.5t176 234.5t111.5 234 q35 103 35 184v17q0 13 30 19q20 4 46 4q12 0 25 -1q42 -3 88 -17.5t77 -44t39 -75.5q2 -9 1 -19q0 -40 -26 -93q-80 -158 -206.5 -316.5t-279.5 -286.5t-316.5 -209t-317.5 -81q135 -10 232.5 -57t169 -116t123 -152.5t92.5 -170t76.5 -168t76.5 -145t92.5 -102.5 t122.5 -41q11 1 13 -25q0 -3 1 -8q-1 -23 -9 -56q-10 -38 -28 -82t-45.5 -82t-63.5 -62q-33 -23 -73 -23h-6q-72 2 -125 55t-95 139t-79 196t-78 224.5t-90 223t-115.5 193.5t-156.5 137t-211 52q-23 0 -61.5 -5t-69.5 -11q-86 -203 -220 -371t-327 -266q-129 -66 -262 -76 q-66 0 -120 12.5t-99 47.5q-41 35 -63 85q-20 46 -19 99v10v9q1 57 25 117q26 65 69 124q25 33 70 75t103 73q60 30 130 40q20 3 40 3q52 0 108 -19q20 -8 16 -38.5t-22.5 -59.5t-44 -45.5t-46.5 6.5q-29 31 -69 33h-10q-36 0 -73 -14q-42 -16 -80 -42t-60 -53 q-76 -92 -76 -192v-11q0 -39 12 -75q14 -41 51 -58q36 -16 72 -16q50 -1 101 29q89 50 173 153t159 241t134 282q27 68 50.5 135t41 129.5t29.5 115t16 88.5q-20 8 -61 51.5t-93 95.5t-112.5 103.5t-122.5 75.5q-88 36 -157 36q-18 0 -36 -3q-82 -12 -136 -59.5t-81.5 -121 t-27.5 -149.5q0 -16 -33.5 -26.5t-75.5 -10.5t-76 12.5t-34 45.5zM1389 870q8 2 18 3t20 6q109 23 195 92q35 31 68.5 69.5t58.5 85.5q18 29 28.5 55.5t16.5 51.5q6 26 6 48.5t-6 41.5q-12 37 -49 53q-18 6 -37 6q-25 0 -55 -10q-16 -6 -32.5 -16t-33.5 -25q-37 -27 -57 -61 q-27 -35 -43.5 -74t-30.5 -76q-20 -61 -37.5 -123.5t-29.5 -126.5z" />
<glyph unicode="L" horiz-adv-x="1236" d="M-20 106q-1 8 -1 16q0 27 13 58q23 53 79 95t142 65q55 14 109 14q16 0 30 -1q68 -5 140 -27q49 76 89 178t75.5 216t71.5 231.5t74 226t82 199.5t99 151q31 33 76 47t92 14t91 -9t72.5 -25.5t36 -35t-17.5 -34.5q-55 -35 -93 -123t-71.5 -206t-68.5 -254t-83 -266 t-117 -242.5t-169 -184.5q94 -70 198.5 -142.5t219.5 -136t239 -113.5t258 -75q106 -20 218 -20q29 0 59 2q143 6 293 53q20 6 32 -38q6 -25 6 -54q0 -23 -4 -49q-9 -58 -47 -112t-118 -71q-55 -12 -111 -12q-65 0 -130 16q-122 29 -245.5 88.5t-247.5 141.5t-244 168 t-234 165t-220 132q-205 -131 -475 -144q-25 -4 -48 -4q-26 0 -49 5q-44 9 -73 38q-23 25 -28 59z" />
<glyph unicode="M" horiz-adv-x="2973" d="M25 90v14q1 79 21 156q22 84 65 156q100 164 276 237q127 53 277 53q87 0 182 -18q16 -4 25.5 -15t9.5 -28q-4 -35 -37 -39q-137 -16 -232.5 -75.5t-150.5 -142.5t-75 -178q-11 -55 -11 -108q0 -38 6 -73q14 -86 60 -152.5t119 -91.5q34 -12 74 -12q45 0 96 15 q97 28 218 128q98 82 180 193.5t144.5 217t102.5 188.5t52 110q-74 141 -128 264t-66 227q-3 36 -3 70q0 86 21 166q31 104 99 178q43 46 96 70q49 22 98 22h8q10 0 23 -4h2q55 0 94 -49q41 -49 49 -139q2 -24 3 -52q0 -72 -17 -161q-12 -68 -36.5 -160t-61.5 -199l78 -156 q43 -84 84.5 -166.5t76.5 -168.5q66 92 142.5 189t164.5 202q94 111 193.5 218t198 205.5t189.5 184.5t171 156q20 18 60 27.5t88 11.5q13 1 25 1q34 0 67 -4q45 -6 73.5 -19t33.5 -33.5t-27 -47.5q-115 -96 -209.5 -244.5t-167 -324.5t-121.5 -371q-50 -194 -74 -384 q-23 -175 -22 -335v-26q2 -172 32.5 -305.5t92 -216t153.5 -91.5q20 -2 27.5 -14t4.5 -26.5t-14.5 -27t-29.5 -14.5q-38 -4 -72 -4q-120 0 -208 48q-112 62 -180 179t-95 277q-25 149 -25 314v24q2 178 30 361.5t69 347t91 297t99 211.5q-98 -98 -196.5 -207t-194.5 -221 q-193 -229 -332 -429q72 -182 80 -317q2 -25 2 -49q0 -110 -37 -209q-43 -111 -121 -176q-70 -53 -143 -53q-31 0 -53 8q-4 0 -19.5 7t-31 16.5t-27.5 20.5t-12 21q-16 35 -16 84q0 105 71 277q33 82 92 184q-33 104 -86 217t-108 223q-20 -41 -41 -80.5t-43 -80.5 q-137 -254 -297 -426q-92 -98 -188.5 -165t-196.5 -100q-92 -33 -176 -42q-25 -3 -51 -3q-60 0 -124 15q-70 16 -129 53t-102 90q-47 59 -73.5 136t-28.5 163z" />
<glyph unicode="N" horiz-adv-x="2600" d="M33 90v14q1 79 21 156q22 84 65 156q100 164 276 237q127 53 277 53q87 0 182 -18q16 -4 25.5 -15t9.5 -28q-4 -35 -37 -39q-113 -12 -196 -57t-139 -108.5t-88 -136.5t-42 -140q-5 -31 -5 -65q0 -37 6 -75q11 -74 47 -135q37 -61 95 -95q39 -23 90 -23q26 0 54 6 q94 18 189 83.5t181 157t160 194.5t123 196q70 127 121 249l-51 74q-129 203 -154 381q-7 47 -7 92q0 75 19 144q33 106 97 176q87 98 196 98h13q10 0 22 -4h2q55 0 94 -49q41 -49 49 -139q2 -24 3 -52q0 -72 -17 -161q-12 -66 -34.5 -153t-57.5 -190q47 -72 105.5 -144.5 t117.5 -143.5q37 -45 75 -89t73 -91q45 104 95 234t108.5 263t128 256t152.5 213t181 136q65 30 139 30q38 0 78 -8q53 -10 72 -50q14 -30 14 -61q1 -11 -1 -21q-6 -42 -29 -71t-54 -18q-72 26 -135 26q-41 0 -79 -11q-95 -28 -171.5 -102.5t-139 -186t-115 -235.5 t-98.5 -249t-89 -227l21 -29q59 -92 89.5 -174t37.5 -162q2 -25 2 -49q0 -110 -37 -209q-43 -111 -121 -176q-70 -53 -144 -53q-31 0 -53 8q-16 4 -28 12h-2q-14 4 -31 15.5t-29 37.5q-16 35 -16 84q0 105 71 277q16 41 34 87t36 99q-41 78 -104.5 158t-135.5 166 q-68 80 -135 166q-23 -53 -50.5 -106.5t-55.5 -106.5q-137 -254 -297 -426q-92 -98 -188.5 -165t-196.5 -100q-127 -43 -236 -43q-59 0 -114 13q-70 16 -129.5 53t-102.5 90q-47 59 -73.5 136t-28.5 163z" />
<glyph unicode="O" horiz-adv-x="2250" d="M5 345q11 134 48 271q39 133 102.5 264.5t149.5 249.5q88 121 188.5 218.5t211.5 167.5q63 41 138 48q24 2 47 2q46 0 83 -10q55 -14 73 -44q5 -8 4 -17q0 -23 -36 -47q-109 -72 -204 -166t-175 -204.5t-139.5 -232.5t-96.5 -251q-35 -127 -44 -252q-3 -46 -3 -90 q0 -78 10 -150q16 -114 55.5 -212.5t102.5 -170.5q96 -109 220 -147q88 -27 180 -28q37 0 75 4q131 16 260 75.5t236 149.5q88 72 165 161t136 189q61 100 106.5 210.5t70 221.5t29.5 217q1 23 1 46q0 82 -14 157q-18 106 -66.5 203.5t-117 159t-154.5 74.5q-16 2 -32 2 q-72 0 -153 -46q-98 -55 -182 -147.5t-135 -198.5q-47 -104 -63 -218q-8 -55 -9 -108q0 -58 10 -114q6 -45 18.5 -85t31 -80t43 -82t57.5 -93q16 -27 6 -50.5t-39 -39.5q-28 -17 -68 -25q-29 -6 -60 -6q-11 0 -23 1q-43 3 -83 20.5t-65 50.5q-70 92 -109.5 184t-56.5 192 q-10 60 -10 123q0 56 8 115q10 66 26.5 128t45.5 122q29 59 66.5 115.5t84.5 107.5q90 96 199 160q102 56 211 78q59 12 117 12q48 0 96 -8q92 -16 173 -60.5t146 -115.5q63 -70 105.5 -160.5t62.5 -194.5q15 -85 15 -175q0 -134 -33 -279q-27 -119 -74 -236t-112 -221 q-129 -213 -318 -371q-100 -82 -216 -143.5t-239.5 -95t-252.5 -38.5q-20 -1 -39 -1q-109 0 -217 24q-117 25 -215.5 78t-169.5 131q-72 78 -119 184.5t-66 235.5q-9 75 -9 153q0 53 4 108z" />
<glyph unicode="P" horiz-adv-x="1947" d="M-4 658q2 83 28.5 166t69.5 159q63 113 163.5 212t218.5 173t246 117t249 45h23q78 0 156 -12q89 -14 174 -46t166 -88.5t155 -142.5q39 -47 68.5 -99.5t47.5 -105.5q35 -99 35 -200v-11q-2 -98 -36 -198.5t-97 -192.5q-72 -106 -170 -191t-215 -139q-117 -55 -236 -67 q-16 -2 -33.5 -3t-33.5 -1q-92 0 -170 26q-14 4 -22.5 15.5t-6.5 27.5q4 33 37 37q94 6 184 43t170 95.5t142.5 136.5t101.5 170q60 141 60 287q0 151 -61 275q-60 122 -178 203t-292 91q-129 -2 -241.5 -57.5t-201.5 -142.5t-149 -198q-60 -110 -86 -222q-17 -75 -17 -146 q0 -36 4 -70q13 -104 73 -178q12 -16 -6.5 -38.5t-52.5 -37.5q-33 -16 -73 -18h-7q-35 0 -62 20q-67 66 -97 144q-28 74 -28 151v11zM252 -406q-5 16 -5 40q0 33 9 81q16 84 49 197t79 246t94 266t94 259t79 226.5t47 166.5q8 35 8 54q0 18 -6 23q-10 8 5.5 19.5t44 18.5 t65.5 9h15q29 0 55 -6q33 -8 57.5 -30.5t28.5 -63.5q2 -15 1 -32q0 -71 -27 -174q-34 -128 -89 -280.5t-121.5 -316.5t-123 -311.5t-93.5 -265.5q-33 -106 -33 -166v-13q0 -18 -28.5 -35.5t-67.5 -17.5t-79 22.5t-58 83.5z" />
<glyph unicode="Q" horiz-adv-x="2250" d="M5 345q11 134 48 271q39 133 102.5 264.5t149.5 249.5q88 121 188.5 218.5t211.5 167.5q63 41 138 48q24 2 47 2q46 0 83 -10q55 -14 73 -44q4 -9 4 -17q0 -23 -36 -47q-109 -72 -204 -166t-175 -204.5t-139.5 -232.5t-96.5 -251q-35 -127 -44 -252q-3 -46 -3 -90 q0 -77 10 -150q15 -114 55 -212.5t103 -170.5q10 -10 21.5 -21t21.5 -22q90 51 187 72q82 18 169 18h29q101 -4 206.5 -27.5t209.5 -55.5q35 23 66.5 44t60.5 46q88 72 165 161t136 189q61 100 106.5 210.5t70 221.5t29.5 217q1 24 1 46q0 82 -14 157q-18 106 -66.5 203.5 t-117 159t-154.5 74.5q-16 2 -32 2q-72 0 -153 -46q-98 -55 -182 -147.5t-135 -198.5q-47 -104 -63 -218q-8 -55 -8 -108q0 -58 9 -114q6 -45 18.5 -85t31 -80t43 -82t57.5 -93q16 -27 6 -50.5t-39 -40t-68 -24.5q-29 -6 -60 -6q-11 0 -23 1q-43 3 -83 20.5t-65 50.5 q-70 92 -109.5 184t-56.5 192q-10 60 -10 123q0 56 8 115q10 66 26.5 128t45.5 122q29 59 66.5 115.5t84.5 107.5q90 96 199 160q102 57 211 78q59 12 117 12q49 0 96 -8q92 -16 173 -60.5t146 -115.5q63 -70 105.5 -160.5t62.5 -194.5q15 -85 15 -175q0 -134 -33 -279 q-27 -119 -74 -236t-112 -221q-129 -213 -318 -371q-20 -16 -39.5 -30.5t-40.5 -28.5q154 -55 304.5 -115.5t287.5 -103.5t258 -55q25 -2 48 -2q93 0 169 36q16 8 27 -30q9 -27 9 -64q0 -13 -1 -26q-4 -54 -29.5 -108t-85.5 -81q-40 -18 -92 -18q-19 0 -41 3 q-77 9 -171.5 40.5t-201 82t-221 106.5t-233.5 112.5t-236 103.5q-160 -72 -331 -93q-61 -8 -122 -8q-111 0 -222 25q-117 25 -215.5 78t-169.5 131q-72 78 -119 184.5t-66 235.5q-9 75 -9 153q0 53 4 108zM639 -381q111 -66 238 -73q19 -1 39 -1q108 0 217 33 q-135 45 -261 60q-39 5 -76 5q-84 0 -157 -24z" />
<glyph unicode="R" horiz-adv-x="1959" d="M8 658q2 83 28.5 166t69.5 159q63 113 164 212t218.5 173t245.5 117t249 45h23q78 0 156 -12q89 -14 174 -46t166 -88.5t155 -142.5q39 -47 69 -99.5t48 -105.5q34 -96 35 -195q0 -8 -1 -16q-2 -98 -35.5 -198.5t-97.5 -192.5q-72 -106 -170 -191t-215 -139 q-43 -23 -87 -36t-87 -23q80 -53 157 -127t154.5 -153.5t155.5 -157.5t161 -138.5t171 -96.5q77 -32 161 -32q12 0 23 1q18 0 15 -39t-27.5 -87.5t-69.5 -88t-108 -41.5h-6q-85 0 -171 59q-90 61 -179 157.5t-177 212t-171 223t-160.5 189.5t-147.5 113q-20 4 -40.5 8 t-39.5 12q-14 4 -22.5 15.5t-6.5 27.5q4 33 37 37q94 6 184.5 43t170.5 95.5t142 136.5t101 170q61 142 61 289q0 150 -62 273q-60 122 -178 203t-292 91q-129 -2 -241.5 -57.5t-201.5 -142.5t-149 -198q-60 -110 -86 -222q-17 -75 -17 -146q0 -36 4 -70q13 -104 73 -178 q12 -16 -6.5 -38.5t-52 -38t-73.5 -17.5h-7q-36 0 -62 20q-67 66 -97 144q-28 74 -28 151v11zM264 -406q-5 16 -5 39q-1 33 9 82q16 84 49 197t79 246t94.5 266t94.5 259t78.5 226.5t46.5 166.5q8 36 8 55q0 16 -5 22q-10 8 5 19.5t44 18.5q30 7 66 9h14q29 0 55 -6 q33 -8 57.5 -30.5t28.5 -63.5q2 -15 1 -32q0 -71 -26 -174q-34 -128 -89.5 -280.5t-122 -316.5t-122.5 -311q-58 -148 -94 -266q-33 -106 -32 -166v-13q0 -18 -29 -35.5t-68 -17.5t-79 22.5t-58 83.5z" />
<glyph unicode="S" horiz-adv-x="1740" d="M12 -139q-4 33 -4 65q0 96 35 191q47 131 137 217q98 94 221 110q20 3 41 3q48 0 106 -15q84 -22 154 -76.5t105 -136.5q17 -40 17 -86q0 -49 -19 -104q-11 -37 -57 -47q-27 -6 -54 -7q-19 -1 -38 3q-46 8 -77.5 30.5t-15.5 52.5q33 66 33 122v7q-2 58 -28.5 100 t-68.5 62q-32 15 -65 14q-10 0 -20 -1q-96 -14 -174 -87t-119 -188q-30 -85 -30 -165q1 -31 5 -61q16 -108 84 -181q80 -88 204 -123q68 -19 139 -19q59 0 120 13q131 29 225.5 102.5t132.5 179.5q35 98 37 200v20q0 92 -16 184q-18 104 -50 208.5t-67 208.5 q-45 135 -81 260t-40 246q-1 14 -1 28q0 96 36 173q16 41 44 73.5t63 55.5q31 21 77 31q42 10 87 9h8q49 -1 97 -10.5t87 -25.5q96 -41 179 -115.5t133.5 -168t58.5 -194.5q1 -14 1 -27q0 -86 -44 -167q-16 -29 -58 -37q-21 -4 -42 -4q-22 0 -43 4q-42 8 -67.5 28t-8.5 46 q63 100 65 196v11q0 90 -32 163q-34 77 -95 124t-125 47q-44 0 -60 -45q-14 -39 -14 -96v-18q2 -68 16.5 -153t34 -165t39 -146.5t29.5 -97.5q35 -104 69 -212t52 -218q16 -96 16 -183q0 -141 -43 -259q-35 -98 -112.5 -176t-192.5 -128q-150 -63 -317 -63q-84 0 -178 7 t-172 30q-150 37 -252 145q-88 96 -107 236z" />
<glyph unicode="T" horiz-adv-x="1310" d="M-12 977q6 104 46 193.5t104.5 160t147.5 120.5t179 77q68 17 162 17h29q112 -3 242 -20.5t267.5 -44t264 -52t235.5 -45t178 -21.5l52 -2q64 0 122 8q82 10 142.5 32.5t92.5 58.5q25 28 25 64q0 10 -2 21q-4 20 32 20q1 0 2 1q35 -1 80 -21q46 -20 85 -60.5t43 -99.5 v-15q0 -29 -6 -61q-8 -40 -35 -75t-78 -59.5t-133 -26.5q-12 -1 -25 -1q-80 0 -199 22q-138 24 -304 60t-342 77t-338 73q-162 34 -293 50q-76 10 -132 9q-41 0 -71 -5q-55 -10 -104 -35t-86 -59.5t-59.5 -76.5t-24.5 -87q-1 -10 -1 -19q0 -43 15 -79q18 -44 53 -72 q35 -30 84 -42q26 -7 55 -6q25 0 52 5q20 4 5 -29t-55 -76t-100.5 -81t-128.5 -44q-12 -1 -23 -1q-49 0 -91 14q-52 16 -90 48t-58 80q-16 39 -17 86q0 9 1 19zM465 -406q-5 16 -5 40q0 33 9 81q16 84 49 197t79 246t94 266t94 259t79 227q34 100 48 166q8 35 7 54 q0 18 -6 23q-10 8 5.5 19.5t44 18.5t65.5 9h15q29 0 55 -6q32 -8 57 -30.5t29 -63.5q2 -15 1 -32q0 -71 -27 -174q-34 -128 -89 -280.5t-121.5 -316.5t-123 -311.5t-93.5 -265.5q-33 -106 -33 -166v-13q0 -18 -28.5 -35.5t-67.5 -17.5t-79 22.5t-58 83.5z" />
<glyph unicode="U" horiz-adv-x="2748" d="M-18 600q6 106 43 215q53 160 159.5 292t259.5 236q158 111 322 166.5t328 65.5q29 2 59 2q71 -1 141 -11q100 -14 185.5 -52.5t149 -104.5t89.5 -162q17 -56 17 -123q0 -91 -31 -202q-25 -86 -62.5 -174.5t-85 -177.5t-98.5 -176t-100 -169q-49 -84 -96.5 -163.5 t-81.5 -148.5t-50 -124q-10 -34 -10 -61q0 -16 4 -29q12 -38 43 -38q13 -1 27 5q54 20 127.5 88t160.5 168.5t170 209t155.5 210.5t117.5 172q78 119 147.5 242t133.5 241q74 160 169 294.5t187 230.5q18 18 58 28.5t86 12.5q12 1 25 1q34 0 68 -4q46 -6 74.5 -19 t34.5 -34.5t-26 -48.5q-115 -96 -209.5 -244.5t-167 -324.5t-121.5 -371q-50 -194 -74 -384q-23 -175 -22 -335v-26q2 -172 32.5 -305.5t92 -216t153.5 -91.5q20 -2 28.5 -15t5.5 -27.5t-15.5 -27t-30.5 -12.5q-18 -1 -36 -1q-148 -1 -251 59q-115 66 -183 186 q-66 121 -92 283q-21 131 -21 277q0 34 1 69q6 158 29.5 323.5t66.5 331.5l-73 -117q-201 -315 -396 -546q-221 -262 -413 -387q-152 -98 -275 -99q-16 0 -31.5 2t-31.5 6q-84 18 -103 89q-7 23 -7 51q0 27 6 59q14 66 59 160q37 80 88 171t110 189q49 86 100.5 176.5 t98.5 181.5t86 181t64 176q29 105 29 191q0 221 -187 327q-86 47 -205 48h-5q-117 0 -243 -46q-102 -37 -187 -103.5t-150.5 -149.5t-108.5 -172t-62 -169q-14 -59 -13 -111q0 -22 2 -44q9 -70 41 -115t85 -61q22 -7 47 -7q35 0 74 13q31 9 31 -26q0 -28 -22 -67 q-24 -42 -76 -83t-130 -54q-29 -4 -54 -4q-68 0 -116 30q-66 42 -94 120q-24 66 -24 151q-1 16 0 33z" />
<glyph unicode="V" horiz-adv-x="2637" d="M-35 610q-1 22 -1 44q0 72 14 146q20 98 64 195t112 179q59 74 122.5 127t123 92t113.5 64.5t97 41.5q94 37 193.5 57.5t198 20.5t192.5 -20.5t178 -65.5q172 -94 242 -244q29 -69 36 -149q3 -33 3 -69q0 -51 -6 -107q-10 -86 -35 -174.5t-57.5 -177.5t-70.5 -176 t-75 -169q-37 -84 -71.5 -163.5t-58.5 -148.5t-32 -124q-3 -18 -3 -34q0 -32 11 -56q14 -35 43 -35t66 21.5t79 58.5t82 78t74.5 80t57.5 63q106 119 191 235.5t160 229.5t142.5 224.5t139 222t153.5 222t185 224.5q123 141 233 225q137 102 264 131q45 11 109 13h19 q53 0 107 -12q62 -14 113.5 -46.5t71.5 -91.5q8 -25 -12.5 -53.5t-55 -54t-75.5 -45t-75 -25.5t-52.5 3t-5.5 44q12 34 12 65q0 10 -1 19q-5 39 -26 65q-22 24 -55 36q-19 6 -38 7q-15 0 -32 -4q-195 -43 -446 -323q-98 -111 -180 -221.5t-154 -222t-140.5 -223t-142 -226.5 t-159.5 -230.5t-191 -234.5q-203 -223 -362 -340q-172 -119 -291 -119q-27 0 -51 6q-84 18 -117 86q-16 38 -16 87q0 12 1 26q5 66 33 160q25 78 63 170t81 190q76 174 145.5 358.5t91.5 356.5q7 55 7 105q-1 120 -43 209q-60 126 -201 204q-98 53 -205 55q-6 0 -12 1 q-101 0 -197 -39q-47 -18 -100.5 -50t-104.5 -76t-97 -100.5t-77 -124.5q-50 -109 -68 -223q-8 -50 -7 -96q1 -58 13 -108q24 -89 90 -137q42 -30 105 -30q38 0 84 11q27 6 26 -33t-29 -87q-30 -48 -84 -86q-45 -31 -107 -31q-13 0 -27 1q-94 10 -157.5 58.5t-97.5 122 t-40 165.5z" />
<glyph unicode="W" horiz-adv-x="3602" d="M-35 610q-1 22 -1 44q0 72 14 146q20 98 64 195t112 179q59 74 122.5 127t123 92t113.5 64.5t97 41.5q94 37 193.5 57.5t198 20.5t192.5 -20.5t178 -65.5q172 -94 242 -244q29 -69 36 -149q3 -33 3 -69q0 -51 -6 -107q-10 -86 -35 -174.5t-57.5 -177.5t-70.5 -176 t-75 -169q-37 -84 -71.5 -163.5t-58.5 -148.5t-32 -124q-3 -18 -3 -34q0 -32 11 -56q14 -35 43 -35t66 21.5t79 58.5t82 78t74.5 79.5t57.5 63.5q59 66 112.5 132.5t100.5 131.5q16 66 33.5 131.5t42.5 133.5q76 217 165 385q49 92 100.5 159.5t102.5 108.5q68 57 121 63 q18 2 33 3q31 0 55 -9q51 -16 55 -71q2 -11 2 -24q0 -30 -12 -73q0 -4 -8 -20q-6 -12 -12 -26.5t-13 -31.5q-23 -47 -58.5 -105t-82.5 -124q-4 -6 -9 -13t-9 -14q-47 -104 -87 -222t-73 -240q-53 -223 -54 -391v-7q0 -163 46 -237q86 49 188.5 141t224.5 227 q141 158 256 328t224.5 344t226.5 346t264 332q123 141 234 225q137 102 264 131q44 11 108 13h20q52 0 106 -12q62 -14 113.5 -46t72.5 -92q8 -25 -12.5 -53.5t-55.5 -54t-76 -45t-74.5 -25.5t-52 3t-6.5 44q12 34 12 65q0 10 -1 19q-5 39 -26 65q-22 24 -54 36 q-18 6 -38 7q-15 0 -32 -4q-94 -23 -187.5 -84t-185.5 -153t-183 -210t-181 -251q-78 -115 -155 -237.5t-159 -247.5t-172 -249t-190 -241q-195 -225 -363 -340q-55 -41 -110 -67l-4 -4q-98 -47 -172 -47q-27 0 -52 6q-70 14 -112 84q-33 57 -49 157q-5 47 -5 101q0 27 1 56 q4 87 20 185q-29 -35 -58.5 -69.5t-60.5 -69.5q-203 -223 -362 -340q-172 -119 -291 -119q-27 0 -51 6q-84 18 -117 86q-16 38 -16 87q0 12 1 26q5 66 33 160q25 78 63 170t81 190q76 174 145.5 358.5t91.5 356.5q7 55 7 105q-1 120 -43 209q-60 126 -201 204 q-98 53 -205 55q-6 0 -12 1q-101 0 -197 -39q-47 -18 -100.5 -50t-104.5 -76t-97 -100.5t-77 -124.5q-50 -109 -68 -223q-8 -50 -7 -96q1 -58 13 -108q24 -89 90 -137q42 -30 105 -30q38 0 84 11q27 6 26 -33t-29 -87q-30 -48 -84 -86q-45 -31 -107 -31q-13 0 -27 1 q-94 10 -157.5 58.5t-97.5 122t-40 165.5z" />
<glyph unicode="X" horiz-adv-x="1843" d="M3 -255.5q3 17.5 17 30.5l1047 895q-33 203 -72 370.5t-98 277t-144 152.5q-42 21 -93 21q-53 0 -117 -23q-35 -12 -60.5 -3.5t-35 24.5t2 37.5t52.5 36.5q135 47 250 47q80 0 150 -22q171 -56 272 -251q49 -96 80.5 -211.5t56.5 -246.5l616 528q14 10 31.5 10t28.5 -12 q8 -12 6 -28.5t-17 -28.5l-651 -555q31 -213 62.5 -424t81 -398.5t124 -339t192.5 -247.5q117 -94 287 -122q54 -9 115 -9q131 0 295 40q31 10 53.5 -3t35 -40.5t14.5 -62.5v-13q-1 -28 -7 -54q-8 -32 -27.5 -57.5t-51.5 -31.5q-81 -16 -171 -24q-80 -7 -160 -7h-20 q-90 1 -177 14t-165 44q-139 51 -239.5 136t-172 196.5t-119.5 244t-81 277.5q-35 137 -56.5 276.5t-39.5 278.5q-4 29 -8.5 57.5t-8.5 57.5l-1013 -867q-12 -12 -29 -12q-16 0 -29 12q-10 12 -7 29.5z" />
<glyph unicode="Y" horiz-adv-x="2523" d="M7 741q-3 22 -3 46q0 72 26 159q33 115 120 236q53 74 131.5 141.5t170 118.5t187.5 81.5t186 30.5q117 0 220.5 -27.5t176 -87t107.5 -153.5q24 -65 24 -147q0 -38 -5 -80q-16 -129 -71.5 -263t-113.5 -259q-29 -61 -53.5 -120t-41.5 -109t-24 -90q-4 -16 -4 -30 q0 -20 7 -34q11 -19 31 -19q11 0 26 7q39 18 91 68t110.5 123t115 150.5t104.5 151.5t81 127q68 113 127 223.5t106 208.5t81 180t52 137q8 25 59.5 37.5t110.5 13.5h9q53 0 96 -10q47 -12 47 -39q-2 -39 -3 -98t-4 -136t-9.5 -168t-20.5 -196q-23 -174 -56.5 -334.5 t-80.5 -308.5q88 18 162.5 31.5t129 23t86.5 13.5l31 4q16 4 28.5 -7.5t12.5 -27.5q-2 -16 -14 -29.5t-29 -15.5q-2 0 -35.5 -5t-92 -14t-137.5 -24.5t-173 -36.5q0 -4 -2 -8q-145 -410 -377 -676q-272 -311 -653 -395q-53 -12 -105 -12q-63 0 -108 14q-96 29 -152 102 q-51 68 -51 162v13q0 90 53 192q51 100 155.5 192.5t264.5 174.5q233 123 588 225q31 82 55.5 160t44.5 149q63 219 100 421t54 368q-53 -117 -124 -254.5t-159 -282.5q-55 -94 -123.5 -197.5t-144.5 -201t-158 -179t-162 -131.5q-102 -61 -184 -61q-25 0 -49 6 q-68 12 -92 70q-13 29 -13 69q0 58 27 140q18 59 47 126.5t62 141.5q27 63 56.5 131t54 135.5t44 134t27.5 127.5q5 42 5 80q0 87 -28 152q-41 92 -145 145q-71 35 -154 35q-11 0 -22 -1q-96 -5 -187.5 -46t-165 -111.5t-110.5 -160.5q-31 -78 -32 -157v-7q0 -75 20 -135 q22 -62 62 -98q31 -28 68 -28q11 0 23 3q20 4 16.5 -21.5t-29.5 -58.5t-74 -60.5t-111 -27.5q-80 0 -131.5 54t-62.5 144zM726 -622v-8q0 -35 8 -62q10 -31 28 -45q41 -33 100.5 -33t127 27.5t141 79t143.5 120.5q66 63 125 141t109.5 159t90 163t66.5 156 q-369 -111 -594 -243t-303 -282q-20 -43 -30.5 -88t-11.5 -85z" />
<glyph unicode="Z" horiz-adv-x="1808" d="M6 977q6 104 51 200.5t115 170t161 119.5t189 51q8 0 16 1q50 1 106 -11q65 -12 141.5 -27t166.5 -27q72 -10 157 -10q21 0 43 1q110 3 240 25.5t287 77.5q6 8 38 14.5t74 8.5q21 1 42.5 1t43.5 -1q44 -2 77 -11.5t46 -25.5t-5 -43q-8 -10 -84 -81t-196 -182.5 t-272.5 -255t-312 -297t-317.5 -309t-287 -292.5q2 0 3 -1t3 -1q113 -43 237 -119t259 -162q102 -66 211 -129t223.5 -110.5t235.5 -69.5q65 -12 132 -11q57 1 116 9q127 18 261 82.5t275 193.5q20 19 47 19q11 1 24 -3q42 -12 75.5 -39.5t51 -63.5t-2.5 -56 q-166 -170 -327 -247q-160 -77 -314 -88q-31 -2 -63 -2q-121 0 -237 34q-146 43 -278.5 111.5t-253.5 150.5t-225 149q-135 86 -257 159t-226 114l-43 16h-4q-16 0 -25 8q-51 14 -89 16h-12q-29 0 -53 -6q-28 -8 -47.5 -20t-34.5 -26q-12 -12 -30.5 -13.5t-28.5 8.5t-9 26.5 t13 31.5q102 111 230.5 242t264.5 266t274 269t264 254t230.5 218t174.5 164q-193 -56 -345 -68q-85 -6 -160 -7q-59 0 -113 4q-122 9 -219 23q-69 10 -131 11q-26 0 -50 -2q-47 -4 -90 -24.5t-77 -52.5t-56.5 -72.5t-24.5 -85.5q-1 -9 -1 -19q0 -43 16 -79q18 -44 53 -72 q35 -30 84 -42q26 -7 54 -6q25 0 52 5q20 4 5 -29t-55 -76t-100.5 -81t-127.5 -44q-12 -1 -23 -1q-48 0 -90 14q-52 16 -92 48q-38 32 -58 80q-16 39 -17 86q0 9 1 19z" />
<glyph unicode="[" d="M39 -309l551 1677q6 31 39 31l391 28q16 0 28.5 -11t12.5 -27q2 -16 -10.5 -29.5t-28.5 -13.5l-160 -27l-524 -1595l182 8q16 0 28.5 -12.5t10.5 -28.5t-13 -28.5t-28 -12.5l-444 -10q-10 0 -17.5 5t-13.5 11q-8 12 -4 35z" />
<glyph unicode="]" d="M16 -322q-2 16 10.5 29.5t28.5 13.5l160 27l524 1595l-182 -8q-16 0 -28.5 12.5t-10.5 28.5t13.5 28.5t27.5 12.5l445 10q10 0 17 -5t13 -11q8 -12 4 -35l-551 -1677q-6 -31 -38 -31l-392 -28q-16 0 -28.5 11t-12.5 27z" />
<glyph unicode="^" horiz-adv-x="874" d="M76 961q14 6 41.5 37.5t62.5 73.5t74 90t73.5 87t64.5 64.5t44 23.5q16 2 45 -23.5t64 -64.5t73.5 -87t73.5 -90t63.5 -73.5t43.5 -37.5q12 -6 -2.5 -30t-43 -45.5t-64.5 -31.5t-64 10q-27 18 -53.5 49t-51 70t-47 83t-37.5 85q-16 -41 -36.5 -85t-45 -83t-51.5 -69.5 t-53 -49.5q-29 -20 -64.5 -10t-64.5 31.5t-43 45.5t-2 30z" />
<glyph unicode="_" horiz-adv-x="1452" d="M8 -293q0 12 53.5 23.5t141.5 21.5t200.5 21.5t231.5 20.5t234.5 19.5t207.5 19.5t152.5 18.5t68.5 17.5q10 10 23.5 -30t21 -95t1 -108.5t-34.5 -71.5q-25 -16 -93.5 -22.5t-165 -4.5t-211 10.5t-230 21.5t-224.5 29.5t-192.5 35t-134 38t-50.5 35.5z" />
<glyph unicode="`" horiz-adv-x="331" d="M23 1421q0 35 29.5 57.5t64.5 33t61.5 8t24.5 -16.5q-6 -25 11 -83t35.5 -122.5t28 -118t-9.5 -65.5q-29 -18 -71.5 6.5t-82.5 71.5t-67 109.5t-24 119.5z" />
<glyph unicode="a" horiz-adv-x="1071" d="M-94 261q-1 18 -1 37q-1 58 13 119q18 81 45 148q49 125 109.5 214t127.5 145q68 58 140 82q67 23 134 22h11q25 -2 52.5 -9t51 -23.5t40 -44t16.5 -68.5q0 -45 -20 -62q-16 -18 -43 -18q-25 0 -44.5 16t-19.5 43q0 16 9.5 30.5t23.5 25.5q-10 25 -33 24h-4 q-28 0 -60 -26q-34 -28 -74 -80t-83 -128.5t-86 -170.5q-27 -59 -44 -128t-19 -131v-19q0 -51 12 -91q14 -47 51 -62q29 -12 60.5 6.5t63.5 57.5t65.5 94t65.5 115.5t61.5 121t56.5 111.5q29 68 56.5 128.5t46 108.5t24.5 82t-6 46q-14 12 13 28.5t68 18.5h7q38 0 78 -18 q44 -20 63 -82q8 -25 8 -55q0 -39 -14 -89q-24 -86 -68.5 -178t-94.5 -182t-84 -161t-39 -113v-8q0 -30 33 -30q4 0 9 1q18 2 51 32.5t72 78.5t81 107.5t77.5 119t64.5 112.5t41 88q6 16 20.5 20.5t26.5 0.5t19.5 -16.5t-0.5 -26.5q-16 -35 -47 -95.5t-73 -129t-91 -138 t-101.5 -127t-105.5 -94.5t-103 -37h-9q-71 0 -107 64q-31 54 -31 130q0 20 2 42q-39 -63 -82 -115.5t-93 -83.5t-106 -37q-10 -1 -20 -1q-48 0 -104 24q-82 33 -118 96t-42 138z" />
<glyph unicode="b" horiz-adv-x="1099" d="M-158 104q-5 14 -5 35q1 34 13 84q20 82 59.5 191.5t92.5 236.5t109.5 256t108.5 251t91 218.5t57 159.5q11 38 12 58q0 13 -5 18q-14 12 13.5 28.5t69.5 18.5h7q38 -1 78 -19q43 -20 61 -81q4 -15 5 -36q0 -27 -8 -63q-13 -64 -44 -147.5t-73 -183t-91 -203.5 q69 64 147 88q30 9 62 9q52 0 109 -24q82 -35 117.5 -97t41.5 -137q2 -20 3 -39q-1 -57 -15 -117q-18 -81 -45 -148q-53 -133 -118.5 -225.5t-137.5 -147.5q102 23 181 87.5t151 150.5q68 80 122 162.5t89 150.5q6 14 18 19.5t31 -5.5q14 -8 17 -22.5t-3 -26.5 q-49 -100 -113.5 -194.5t-142.5 -182.5q-51 -57 -109.5 -105t-131 -80t-164.5 -44q-46 -6 -99 -6t-112 6q-25 2 -52.5 9t-51 23.5t-40 44t-16.5 68.5t16 58q18 23 48 22q25 0 44 -16t19 -43q0 -39 -35 -55q12 -25 35 -25h4q26 0 58 26q36 28 76 80t83 127.5t86 171.5 q27 59 44.5 130t20.5 135q1 11 1 21q-1 50 -13 88q-14 46 -53 57q-10 2 -19 2q-38 0 -78 -31q-50 -39 -100.5 -104.5t-98.5 -148.5t-87 -159q-37 -80 -68.5 -150.5t-51 -127t-27.5 -95t0 -55.5q8 -16 -13.5 -33.5t-55.5 -18.5h-3q-33 -1 -67 21q-36 22 -54 84z" />
<glyph unicode="c" horiz-adv-x="763" d="M-88 261q-1 18 -1 37q-1 58 13 119q18 81 45 148q49 125 109.5 214t127.5 145q68 58 140 82q67 23 135 22h11q25 -2 52 -9t50.5 -23.5t40 -44t16.5 -68.5t-18 -60q-16 -20 -45 -20q-25 0 -44.5 16t-19.5 43q0 16 9.5 30.5t23.5 25.5q-10 25 -33 24h-4q-28 0 -60 -26 q-34 -28 -74 -80t-83 -128.5t-86 -170.5q-27 -59 -44 -131t-20 -136q-1 -11 0 -21q0 -50 11 -88q14 -46 53 -55q12 -2 25 -2q34 0 72 16q52 22 106.5 64.5t107 100t98.5 121t81.5 126t56.5 115.5q6 16 20.5 21.5t30.5 -2.5q27 -14 14 -43q-33 -72 -81 -153t-107 -156.5 t-128 -142.5t-141.5 -109t-149.5 -54q-21 -3 -43 -3q-55 0 -107 22q-82 33 -118 96t-42 138z" />
<glyph unicode="d" horiz-adv-x="1067" d="M-94 261q-1 18 -1 37q-1 58 13 119q18 81 45 148q49 125 109.5 214t127.5 145q68 58 140 82q67 23 134 22h11q25 -2 52.5 -9t51 -23.5t40 -44t16.5 -68.5t-18 -60q-16 -20 -45 -20q-25 0 -44.5 16t-19.5 43q0 16 9.5 30.5t23.5 25.5q-10 25 -33 24h-4q-28 0 -60 -26 q-34 -28 -74 -80t-83 -128.5t-86 -170.5q-27 -59 -44 -128t-19 -131v-19q0 -51 12 -91q14 -47 51 -62q12 -5 25 -5q32 0 65 33q47 46 96 124t95.5 172t85.5 172q39 100 86 212t93 220.5t88 208.5t71.5 179t43 129.5t3.5 60.5q-14 12 13.5 28.5t67.5 18.5h8q38 -1 78 -19 q44 -20 62 -81q5 -17 5 -41q1 -38 -13 -92q-22 -88 -66.5 -198t-104 -238t-119.5 -253t-114.5 -240.5t-88.5 -202.5q-34 -86 -39 -138q-1 -6 0 -12q0 -35 24 -35h6q20 2 52 32.5t71 78.5t80 107.5t77.5 119t65.5 112.5t41 88q6 16 20.5 20.5t26.5 0.5t19.5 -16.5t-0.5 -26.5 q-16 -35 -47 -95.5t-73 -129t-91.5 -138t-101.5 -127t-105 -94.5t-103 -37h-9q-71 0 -107 62q-31 55 -30 135q0 17 1 35q-39 -63 -82 -113.5t-92 -81.5t-107 -37q-10 -1 -19 -1q-49 0 -103 24q-82 33 -118 96t-42 138z" />
<glyph unicode="e" horiz-adv-x="757" d="M-94 260q-1 19 -1 38q-1 58 13 119q18 81 45 148q49 125 109.5 212t128 142.5t139.5 82t145 26.5q76 0 112 -37t36 -96t-33 -131t-93.5 -140.5t-146.5 -125t-192 -84.5q-14 -54 -20 -106q-4 -31 -4 -58q0 -19 2 -37q4 -43 19 -71.5t46 -35.5q12 -2 25 -2q34 0 72 16 q52 22 106.5 64.5t106.5 100t98.5 121t82 126t56.5 115.5q6 16 21.5 22.5t31.5 -3.5q25 -16 12 -45q-35 -74 -83 -155t-108.5 -158t-128 -141.5t-140 -105.5t-148.5 -53q-21 -3 -42 -3q-54 0 -107 22q-82 33 -118 95t-42 138zM195 496q123 43 201.5 117.5t117.5 147.5 q40 75 40 129q0 50 -36 52h-2q-55 0 -137 -106q-84 -108 -168 -299q-10 -23 -16 -41z" />
<glyph unicode="f" horiz-adv-x="518" d="M-412 -543q-3 22 -3 47q0 57 17 132q23 108 74.5 248.5t117 296t138 319.5t140.5 319q68 154 126 290t101 240.5t65 172.5q15 50 15 75q0 9 -2 15q-8 18 20.5 34.5t69.5 18.5h6q38 0 75 -21q40 -24 54 -85q6 -24 6 -54q0 -35 -8 -78q-14 -79 -45 -170.5t-74 -188.5 t-86 -187t-82 -169t-63 -130l-51 -84q30 -3 57 -3q111 0 182 46q27 16 48.5 41.5t31.5 58.5q4 14 19.5 18.5t27.5 -4.5q10 -6 16.5 -19t0.5 -30q-16 -35 -39 -58.5t-51 -43.5q-57 -39 -127 -56q-62 -14 -119 -14h-13q0 -72 -21.5 -182.5t-60 -233t-93 -245.5t-118 -216.5 t-136.5 -145.5q-55 -40 -111 -40q-18 0 -35 4q-59 12 -70 82zM-272 -487.5q-12 -49.5 4 -55.5q7 -5 16 -5q21 0 52 33q44 46 96.5 132t103.5 198.5t90 225.5t58 214q13 63 13 111q0 30 -5 54q-43 -92 -96.5 -196.5t-106.5 -210t-100.5 -203t-80 -173t-44.5 -125z" />
<glyph unicode="g" horiz-adv-x="1075" d="M-152 -500q-2 18 5.5 44t35.5 55q33 33 79 59.5t96.5 51t98.5 50t83 56.5q20 57 48 126.5t60 145.5q-59 -57 -130 -76q-25 -7 -52 -7q-49 0 -106 22q-82 33 -118 96t-42 138q-1 18 -1 37q0 58 13 119q19 81 45 148q49 125 109.5 214t128 145.5t139.5 81.5q67 22 134 22 h11q25 -2 52.5 -9t51 -23.5t40 -44t16.5 -68.5t-18 -60q-16 -20 -45 -20q-25 0 -44.5 16t-19.5 43q0 16 9.5 30.5t23.5 25.5q-10 25 -33 24h-4q-27 0 -60 -26q-34 -27 -74 -79.5t-83 -129t-86 -170.5q-27 -59 -44 -128t-19 -131q-1 -10 -1 -19q0 -51 13 -91q14 -47 51 -62 q11 -5 23 -5q35 0 73 39q51 53 102.5 139t99.5 185t89 175q0 6 2 8q55 131 85 223q19 60 19 90q0 17 -6 25q-10 12 18.5 28.5t71.5 18.5h7q39 0 78 -20q42 -23 61 -86q3 -11 3 -27q0 -33 -13 -85q-21 -77 -58 -173t-84 -201.5t-90 -199t-75.5 -163t-41.5 -95.5 q74 49 154 138t149.5 186t123 189.5t73.5 147.5q6 18 20.5 23.5t27 1.5t19.5 -16.5t1 -26.5q-47 -104 -118 -220t-155 -222.5t-176 -191.5t-180 -130q-12 -31 -32.5 -79t-42 -97.5t-39 -92.5t-25.5 -63q-20 -57 -64.5 -97t-99.5 -61.5t-115 -24.5h-19q-49 0 -91 12 q-52 15 -89.5 51t-48.5 91zM-74.5 -495.5q2.5 -24.5 18 -44t39 -30t52 -2t59.5 40t58 97.5q12 29 29.5 68t35.5 90q-31 -25 -69.5 -43.5t-77.5 -37t-75 -41t-58 -53.5q-14 -20 -11.5 -44.5z" />
<glyph unicode="h" horiz-adv-x="983" d="M-160 104q-5 14 -5 35q1 34 13 84q20 82 59.5 191.5t92.5 236.5t109.5 256t108.5 251t91 218.5t57 159.5q11 38 12 58q0 13 -5 18q-14 12 13.5 28.5t69.5 18.5h7q38 -1 78 -19q43 -20 61 -81q5 -16 5 -37q0 -32 -11 -76q-18 -74 -55 -171t-88.5 -212t-106.5 -232 q72 80 146.5 135.5t140.5 57.5h4q77 0 115 -70q28 -52 28 -124q0 -28 -4 -60q-4 -70 -30.5 -146.5t-60.5 -150.5t-67.5 -140.5t-51.5 -115.5q-16 -42 -17 -70q0 -5 1 -9q3 -30 44 -29q18 0 51 29.5t72 77.5t81 108.5t78.5 120t65.5 113.5t41 89q6 16 20.5 20.5t26.5 0.5 t19.5 -16.5t-0.5 -26.5q-16 -35 -47 -95.5t-73 -129t-91.5 -138t-101.5 -127t-105 -94.5t-103 -37h-7q-37 0 -63 20q-28 22 -46.5 58.5t-25.5 82.5q-4 25 -4 50q0 21 3 43q10 84 39 166t62.5 156.5t66.5 137t49 108.5q12 35 12 58q0 7 -1 13q-5 25 -48 23q-27 -2 -77 -45.5 t-105 -108t-108.5 -137t-86.5 -131.5l-26 -56v-2l-4 -8q-66 -146 -104 -248q-26 -71 -27 -107q0 -16 6 -26q8 -16 -13.5 -33.5t-55.5 -18.5h-3q-33 -1 -67 21q-36 22 -54 84z" />
<glyph unicode="i" horiz-adv-x="471" d="M-127 154q6 -48 25 -82q18 -34 48 -52q27 -17 62 -16h8q49 0 102.5 37t105.5 94.5t101.5 127t91.5 138t73 129t47 95.5q8 14 0.5 26.5t-19.5 16.5t-26.5 0t-20.5 -21q-12 -35 -41 -88t-65.5 -112.5t-77.5 -119t-80 -107.5t-71 -78.5t-52 -32.5h-8q-35 0 -34 30v7 q5 42 39 113t84 161t94 182q45 92 69 177q14 49 14 90q0 30 -8 55q-18 62 -62 82q-41 19 -79 18h-7q-41 -2 -68.5 -18.5t-13.5 -28.5q14 -14 5 -53t-32.5 -96.5t-55 -128t-62.5 -146.5t-54.5 -151.5t-31.5 -143.5q-3 -28 -3 -54t3 -50zM182 1262q0 14 12.5 37.5t28 50 t27.5 49t12 35.5q0 14 31 14t68.5 -16.5t68.5 -49t31 -84.5q0 -12 -11.5 -34.5t-24.5 -47t-24.5 -49.5t-11.5 -39q0 -16 -32.5 -16t-70.5 15.5t-71 49t-33 85.5z" />
<glyph unicode="j" horiz-adv-x="477" d="M-750 -500q-2 18 5.5 44t35.5 55q33 33 79 59.5t96.5 51t98.5 50t83 56.5q31 88 80 203.5t104 239.5t109.5 246t94.5 222t60 170q11 40 11 63q0 17 -7 25q-10 12 18.5 28.5t71.5 18.5h7q39 0 78 -20q42 -23 61 -86q3 -11 3 -27q0 -33 -13 -85q-21 -77 -58 -173 t-84 -201.5t-90 -199t-75.5 -163t-41.5 -95.5q74 49 154 138t149.5 186t123 189.5t73.5 147.5q6 18 20.5 23.5t27 1.5t19.5 -16.5t1 -26.5q-47 -104 -118 -220t-155 -222.5t-176 -191.5t-180 -130q-12 -31 -32.5 -79t-42 -97.5t-39 -92.5t-25.5 -63q-20 -57 -64.5 -97 t-99.5 -61.5t-115 -24.5h-19q-49 0 -91 12q-52 15 -90 51t-48 91zM-673 -495.5q3 -24.5 18.5 -44t39 -30t52 -2t59.5 40t58 97.5q12 29 29.5 68t35.5 90q-31 -25 -69.5 -43.5t-77.5 -37t-75 -41t-59 -53.5q-14 -20 -11 -44.5zM182 1262q0 14 12.5 37.5t28 50t27.5 49 t12 35.5q0 14 31 14t68.5 -16.5t68.5 -49t31 -84.5q0 -12 -11.5 -34.5t-24.5 -47t-24.5 -49.5t-11.5 -39q0 -16 -32.5 -16t-70.5 15.5t-71 49t-33 85.5z" />
<glyph unicode="k" horiz-adv-x="915" d="M-160 104q-5 14 -5 35q1 34 13 84q20 82 59.5 191.5t92.5 236.5t109.5 256t108.5 251t91 218.5t57 159.5q11 38 12 58q0 13 -5 18q-14 12 13.5 28.5t69.5 18.5h7q38 -1 78 -19q43 -20 61 -81q4 -14 4 -33q0 -38 -16 -100q-24 -90 -71.5 -208t-110 -253.5t-125.5 -268.5 q43 35 96 77t107.5 87t105.5 91t91 85t64.5 71t24.5 50t31 10t61 -37q32 -30 46 -76q4 -14 4 -29q0 -34 -23 -73q-25 -43 -77 -84t-117.5 -77.5t-137.5 -69.5t-137 -59q31 -47 77 -133.5t103 -189.5t123 -209.5t136.5 -195t141 -144.5t138.5 -58q18 0 15 -28t-28 -60 q-24 -32 -69 -60q-42 -26 -100 -26h-9q-96 2 -172 77.5t-136 189.5t-108.5 246t-88 248.5t-73.5 197.5t-69 93q-29 -14 -50.5 -25.5t-35.5 -21.5q-45 -94 -83 -179t-63.5 -152.5t-36.5 -114.5q-6 -25 -6 -42q0 -15 5 -24q8 -16 -13.5 -33.5t-55.5 -18.5h-3q-33 -1 -67 21 q-36 22 -54 84z" />
<glyph unicode="l" horiz-adv-x="471" d="M-127 154q-3 24 -3 50t3 54q8 68 51 190.5t102.5 269t125 299t118 280.5t80.5 214q19 58 20 83q0 13 -5 18q-14 12 13.5 28.5t67.5 18.5h8q37 -1 77 -19q44 -20 63 -81q5 -17 6 -41q0 -38 -14 -92q-22 -88 -66.5 -198t-104 -238t-119.5 -253t-114.5 -240.5t-88.5 -202.5 q-34 -86 -39 -138q-1 -6 -1 -12q0 -35 25 -35h6q20 2 52 32.5t71 78.5t80 107.5t77.5 119t65.5 112.5t41 88q6 16 20.5 20.5t26.5 0.5t19.5 -16.5t-0.5 -26.5q-16 -35 -47 -95.5t-73 -129t-91.5 -138t-101.5 -127t-105 -94.5t-103 -37h-8q-36 0 -62 16q-30 18 -48.5 52 t-24.5 82z" />
<glyph unicode="m" horiz-adv-x="1456" d="M-156 104q-7 23 -7 52q-1 34 9 77q18 80 53 171.5t78 186.5t78 175t51 138q8 28 9 46q0 19 -9 27q-14 12 13.5 28.5t69.5 18.5h7q38 0 78 -18q43 -20 62 -82q7 -20 7 -46q0 -22 -5 -47q66 80 137.5 136.5t136.5 58.5h4q77 0 115 -70q29 -53 28 -127q0 -27 -3 -57 q-4 -25 -8.5 -50.5t-12.5 -51.5q45 70 92 134t96.5 113.5t96.5 78t92 28.5q80 0 118 -70q28 -52 29 -127q0 -27 -4 -57q-4 -70 -30.5 -146.5t-60.5 -150.5t-68 -141q-34 -66 -52 -115q-16 -42 -16 -70q0 -5 1 -9q3 -30 44 -29q18 0 51 29.5t72 77.5t81 108.5t79 120 t65.5 113.5t40.5 89q6 16 20.5 20.5t27 0.5t19.5 -16.5t-1 -26.5q-16 -35 -47 -95.5t-73 -129t-91 -138t-101.5 -127t-105.5 -94.5t-102 -37h-7q-37 0 -63 20q-29 22 -47.5 58.5t-25.5 82.5q-4 25 -4 50q0 21 3 43q10 84 39 166t62.5 155.5t66.5 136.5q34 62 50 108 q12 34 12 57q0 8 -2 14q-6 25 -48 25q-20 0 -54 -31t-75 -82t-85 -117.5t-88 -137.5t-82.5 -140.5t-67.5 -128.5q-38 -89 -58 -153q-10 -31 -10 -52t11 -29q14 -12 -13.5 -28.5t-68.5 -18.5h-7q-38 0 -78 18q-44 20 -63 82q-8 26 -8 56q-1 40 13 88q24 86 67 179t92 183 t82 162t37 114v6q0 32 -35 32h-8q-20 -2 -54 -31t-73 -73t-79 -99t-75 -111q-39 -84 -85 -171t-83 -163q-36 -76 -56 -134q-10 -31 -10 -54q0 -20 7 -35q8 -16 -13.5 -33.5t-55.5 -18.5h-3q-33 -1 -67 21q-36 22 -54 84z" />
<glyph unicode="n" horiz-adv-x="995" d="M-158 104q-7 23 -7 52q-1 34 9 77q18 80 53 171.5t78 186.5t78 175t51 138q8 28 9 46q0 19 -9 27q-14 12 13.5 28.5t69.5 18.5h7q38 0 78 -18q43 -20 62 -82q8 -27 6 -58.5t-10 -66.5q39 45 79 86t80.5 71.5t79.5 49t76 18.5h4q77 0 115 -70q28 -52 28 -127q0 -27 -4 -57 q-4 -70 -30.5 -146.5t-60 -150.5t-67.5 -140.5t-52 -115.5q-16 -42 -17 -70q0 -5 1 -9q3 -30 44 -29q18 0 51 29.5t72 77.5t81 108.5t79 120t65.5 113.5t40.5 89q6 16 20.5 20.5t27 0.5t19.5 -16.5t-1 -26.5q-16 -35 -47 -95.5t-73 -129t-91 -138t-101.5 -127t-105.5 -94.5 t-102 -37h-7q-37 0 -63 20q-29 22 -47 58.5t-26 82.5q-4 26 -4 51q0 21 3 42q10 84 39 166t62.5 156.5t66.5 137t49 108.5q13 35 13 58q0 7 -1 13q-5 25 -48 23q-23 -2 -64 -36t-89 -86.5t-97 -114.5t-88 -120q-39 -80 -81 -158.5t-75 -148.5q-32 -70 -48 -123 q-8 -27 -8 -48q0 -20 7 -34q8 -16 -13.5 -33.5t-55.5 -18.5h-3q-33 -1 -67 21q-36 22 -54 84z" />
<glyph unicode="o" horiz-adv-x="870" d="M-84 272v16q0 75 16 155q18 89 55.5 175.5t90.5 163t120 134.5q66 58 145 88q70 27 145 26h20q39 -2 64.5 -17.5t42 -37t24.5 -46.5t12 -48q0 -33 -12 -47q-16 -31 -51 -31q-25 0 -44.5 16.5t-19.5 42.5q0 16 9.5 30.5t23.5 25.5q-16 29 -37.5 28.5t-46 -18t-50.5 -47 t-50 -60.5q-43 -55 -83 -127.5t-71 -149.5t-49 -152t-19 -136v-6q0 -57 17 -95q18 -40 61 -49q5 -1 9 -1q27 0 60 29q38 34 76 87t73.5 115.5t62.5 116.5q-44 18 -60 60q-12 31 -12 62q0 11 2 23q6 43 33 76t68 33q14 0 36.5 -2.5t39 -21.5t18.5 -62v-7q0 -42 -23 -118 q82 2 131.5 22.5t77 45t36.5 48t13 29.5q6 14 19.5 17.5t26 -3t18.5 -19.5t0 -30q-16 -39 -51 -71.5t-81 -54.5q-46 -24 -102 -36q-49 -11 -98 -10h-16q-29 -63 -73 -141t-101.5 -144.5t-125.5 -109.5q-60 -38 -128 -38q-9 0 -19 1q-102 10 -160.5 86t-62.5 184z" />
<glyph unicode="p" horiz-adv-x="1099" d="M-430 -526q-5 14 -5 35q0 33 13 83q19 82 58.5 192t93 236.5t110 256t108.5 251t91 218t57 160.5q11 37 11 56q0 14 -5 19q-14 12 13.5 28.5t69.5 18.5h7q39 0 78 -18q43 -21 62 -82q4 -14 4 -35q0 -14 -2 -31q78 94 170 138q45 22 97 22t110 -23q82 -35 117.5 -97 t41.5 -137q2 -19 2 -39q0 -57 -14 -117q-18 -81 -45 -148q-53 -133 -118.5 -225.5t-137.5 -147.5q102 23 181 87.5t151 150.5q68 80 122 162.5t89 150.5q6 14 18 19.5t31 -5.5q14 -8 17 -22.5t-3 -26.5q-49 -100 -113.5 -194.5t-142.5 -182.5q-51 -57 -108.5 -105t-128 -80 t-156.5 -44q-43 -6 -91 -6t-101 6h-31q-25 2 -52.5 9t-51 23.5t-40 44t-16.5 68.5q0 45 19 60q20 20 45 20t44 -16t19 -43q0 -39 -35 -55q12 -25 35 -25h4q25 0 58 26q36 27 76 79.5t83 128t86 171.5q27 59 44.5 130t20.5 135q1 10 1 21q0 50 -13 88q-14 46 -53 57 q-10 2 -20 2q-26 0 -53 -14q-37 -21 -75 -61t-76 -95.5t-73 -114.5q-41 -106 -97 -230t-116.5 -252t-118 -249t-100.5 -221.5t-64 -170.5q-14 -44 -14 -70q0 -15 4 -24q8 -16 -13 -33.5t-55 -18.5h-3q-33 0 -67 22q-36 22 -54 84z" />
<glyph unicode="q" horiz-adv-x="1087" d="M-123 -326q6 70 38 110t84 58.5t119.5 18.5t143.5 -6q23 57 46.5 116.5t49.5 120.5q-59 -59 -130 -80q-27 -8 -56 -8q-49 0 -106 23q-82 33 -118 96t-42 138q-1 18 -1 37q0 58 13 119q19 81 45 148q49 125 109.5 214t128 145.5t139.5 81.5q67 22 134 22h11q25 -2 52.5 -9 t51 -23.5t40 -44t16.5 -68.5t-18 -60q-16 -20 -45 -20q-25 0 -44.5 16t-19.5 43q0 16 9.5 30.5t23.5 25.5q-10 25 -33 24h-4q-27 0 -60 -26q-34 -27 -74 -79.5t-83 -129t-86 -170.5q-27 -59 -44 -128t-19 -131q-1 -10 -1 -19q0 -51 13 -91q14 -47 51 -62q12 -5 24 -5 q32 0 68 35q49 48 98.5 129t96.5 177.5t88 173.5q31 74 56.5 136.5t41.5 110.5t21.5 79t-3.5 39q-14 12 13.5 28.5t69.5 18.5h7q39 0 78 -18q43 -21 62 -82q4 -15 4 -35q0 -36 -14 -90q-21 -84 -64 -193.5t-101.5 -236.5t-119.5 -254q70 35 128 89t112 118q68 80 122 162.5 t88 150.5q6 14 18.5 19.5t31.5 -5.5q14 -8 17 -22.5t-3 -26.5q-49 -100 -113.5 -194.5t-142.5 -182.5q-66 -72 -138.5 -128t-168.5 -85q-23 -47 -45.5 -93t-42.5 -91q44 -3 88 -3l44 1q66 2 119.5 11t87 26.5t33.5 42.5q0 29 13.5 30t26 -14.5t17.5 -40t-11 -45.5 q-20 -25 -65.5 -47t-108 -38.5t-138.5 -27t-157 -10.5q-49 -111 -75 -189q-17 -52 -17 -81q0 -16 5 -25q8 -16 -13 -33.5t-55 -18.5h-3q-33 0 -67 22q-36 22 -54 84q-5 15 -5 36q0 25 7 58q12 61 41 147q-59 -2 -108.5 -8t-86 -19.5t-58 -37t-23.5 -60.5q-2 -27 -12.5 -35 t-22 2.5t-20.5 38.5q-6 20 -6 50q0 13 1 28z" />
<glyph unicode="r" horiz-adv-x="753" d="M-8 1085q0 63 32.5 108.5t98.5 45.5q41 0 70.5 -34t31.5 -81q0 -27 -3 -73.5t-11 -77.5q10 -8 27.5 -10t37.5 -2q45 0 71 10t44.5 21.5t36.5 21.5t49 10q41 0 82 -20.5t59 -79.5q8 -25 8 -55q0 -39 -14 -89q-24 -86 -68 -178t-94.5 -182t-84 -161t-38.5 -113v-8 q0 -30 33 -30q4 0 9 1q18 2 51 32.5t71.5 78.5t79.5 107.5t78 119t65.5 112.5t41.5 88q6 16 20.5 20.5t26.5 0.5t19 -16.5t-1 -26.5q-16 -35 -47 -95.5t-73 -129t-91 -138t-101 -127t-105.5 -94.5t-102.5 -37h-8q-37 0 -63 16q-30 18 -48 52t-24 82q-3 24 -3 50t3 54 q8 80 38.5 170t67.5 177t72 163t51 129q-43 -15 -97 -19q-10 -1 -20 -1l-88 12q-6 -14 -21.5 -52t-33.5 -82t-37 -86t-31 -65q-6 -12 -19 -16t-24.5 0t-18.5 15t-1 28q6 18 22.5 56t33 80t32.5 82t22 66q-47 23 -80.5 72t-33.5 98z" />
<glyph unicode="s" horiz-adv-x="690" d="M-102 254q10 57 39 88q41 43 73.5 57.5t55.5 10.5q23 -2 42 -18.5t19 -41.5q0 -27 -19.5 -45t-44.5 -18q-18 0 -34.5 11t-22.5 30q-27 -31 -37 -74q-6 -27 -6 -52q0 -15 2 -30q6 -39 32 -66.5t71 -29.5q16 0 46.5 15t62.5 51t56.5 92.5t29.5 136.5q1 15 1 30 q0 69 -18 157q-22 106 -86 239q-20 -39 -46 -85t-46 -87q-10 -14 -24.5 -16.5t-27 2.5t-17.5 16.5t3 25.5q16 35 30.5 62.5t29 52.5t26.5 50.5t27 53.5q-23 33 -35 72t-12 82q0 18 7 46t24.5 55.5t48 47t79.5 19.5q51 0 75 -22.5t26 -57.5v-8q0 -32 -14 -69q-16 -42 -44 -83 l-6 -12q80 -92 128 -176t72 -160t28 -142q1 -12 1 -24q0 -52 -12 -98q68 78 121 153.5t88 143.5q6 14 18.5 19.5t30.5 -5.5q14 -8 17.5 -22.5t-2.5 -26.5q-49 -100 -114 -188t-142 -176q-55 -61 -115.5 -110.5t-136.5 -82.5h-2l-2 -2q-45 -23 -86 -35t-70 -12q-82 0 -126 42 t-58 100q-8 33 -9 66q1 24 5 48z" />
<glyph unicode="t" horiz-adv-x="471" d="M-369 1204q8 86 67.5 131t153.5 61q74 12 163 12q23 0 47 -1q118 -4 245 -16q35 91 51 151q10 37 11 55q0 11 -4 15q-14 12 13.5 28.5t67.5 18.5h8q37 -1 77 -19q44 -20 63 -81q6 -16 6 -38q0 -18 -4 -40q-8 -49 -27 -111q45 -2 90 -2t91 2q90 4 161.5 15.5t115.5 30 t44 44.5q0 31 18.5 32t37 -15.5t25.5 -43t-17 -49.5q-27 -27 -85.5 -50t-139.5 -40.5t-179 -30t-205 -14.5q-43 -111 -103.5 -239.5t-120.5 -256.5t-116.5 -246t-90.5 -207q-34 -88 -41 -142q-1 -9 -1 -16q0 -33 25 -33h6q20 2 52 32.5t71 78.5t80 107.5t77.5 119 t65.5 112.5t41 88q6 16 20.5 20.5t26.5 0.5t19.5 -16.5t-0.5 -26.5q-16 -35 -47 -95.5t-73 -129t-91.5 -138t-101.5 -127t-105 -94.5t-103 -37h-8q-36 0 -62 16q-30 18 -48.5 52t-24.5 82q-3 24 -3 50t3 54q8 63 48 179t95.5 254t118 284.5t115.5 273.5q-106 0 -202.5 -3 t-169.5 -17.5t-117 -42t-46 -74.5q-2 -29 -16 -38t-31.5 2t-29.5 43q-9 24 -8 59q0 12 1 26z" />
<glyph unicode="u" horiz-adv-x="940" d="M-127 154q-3 24 -3 50t3 54q8 68 31.5 143.5t54.5 151.5t62.5 146.5t55 128t33 96.5t-5.5 53q-14 12 13.5 28.5t68.5 18.5h7q38 0 78 -18q44 -20 63 -82q8 -25 8 -55q0 -39 -14 -89q-24 -86 -68.5 -178t-94.5 -182t-84 -161t-39 -113v-8q0 -30 33 -29h9q25 2 72 51 t99 121.5t102.5 153.5t82.5 145q31 72 60.5 137t51 119.5t30 91.5t-6.5 49q-14 12 13.5 28.5t68.5 18.5h7q38 0 78 -18q44 -20 63 -82q8 -25 8 -55q-1 -39 -15 -89q-24 -86 -68 -178t-94 -182t-84 -161t-39 -113v-8q0 -30 33 -29h9q18 2 51 32.5t72 78.5t80 107.5t77.5 119 t65.5 112.5t41 88q6 16 20.5 20.5t26.5 0.5t19.5 -16.5t-0.5 -26.5q-16 -35 -47 -95.5t-73 -129t-91 -138t-101.5 -127t-105.5 -94.5t-103 -37h-8q-37 0 -63 16q-30 18 -48 52t-24 82q-3 24 -3 50t3 54q0 10 2 19.5t4 19.5q-39 -57 -81 -109.5t-85 -93.5t-86 -65.5 t-82 -24.5h-8q-36 0 -62 16q-30 18 -48.5 52t-24.5 82z" />
<glyph unicode="v" horiz-adv-x="868" d="M-102 144q-7 31 -6 65q0 38 8 81q14 83 42.5 170t63.5 174t61.5 157.5t40.5 120.5q6 22 5 38q0 19 -9 27q-14 12 13.5 28.5t68.5 18.5h7q38 0 78 -18q44 -20 63 -82q8 -25 7 -55q1 -41 -13 -91q-24 -86 -67.5 -179t-91.5 -185q-47 -92 -75 -166q-23 -63 -24 -104 q0 -8 1 -15q5 -45 68 -45q61 0 117.5 62.5t105 157.5t85 207t61 211t32.5 171q4 37 5 58q0 20 -4 26q-8 12 18.5 28.5t65.5 18.5h7l71 -18q39 -20 55 -82q7 -28 7 -64q-1 -40 -9 -88q-16 -92 -54 -194.5t-99.5 -206t-138.5 -186.5t-167 -134t-188 -51t-147.5 40t-63.5 104z " />
<glyph unicode="w" horiz-adv-x="1316" d="M-133 154q-3 24 -3 50t3 54q8 68 31.5 143.5t54.5 151.5t62.5 146.5t55 128t33 97.5t-5.5 52q-14 12 13.5 28.5t68.5 18.5h7q38 0 78 -18q44 -20 63 -82q8 -25 8 -55q0 -39 -14 -89q-24 -86 -68.5 -178t-94.5 -183t-84 -162t-39 -113v-8q0 -28 30 -28q6 0 12 1 q25 2 60.5 37.5t76.5 92t84 128t83 147.5t75 147.5t59 129.5q29 72 41 121q5 21 5 36q0 20 -9 29q-14 12 13.5 28.5t68.5 18.5h7q38 0 78 -18q44 -20 62 -82q8 -25 8 -56q0 -40 -14 -90q-24 -86 -67 -179t-91 -185t-76 -166q-23 -63 -24 -104q0 -8 1 -15q5 -45 69 -45 q61 0 117.5 62.5t104.5 157.5t85 207t61.5 211t32.5 171q4 36 4 57t-4 27q-8 12 18.5 28.5t65.5 18.5h7l71 -18q39 -20 55 -82q7 -28 7 -65q0 -39 -8 -87q-15 -92 -54 -194.5t-100.5 -206t-138 -186.5t-167 -134t-188.5 -51q-78 0 -124 25.5t-69 67.5q-22 43 -23 99v8 q0 53 11 113q-39 -61 -81 -117.5t-86 -98.5t-88 -66.5t-87 -26.5h-8q-36 0 -62 16q-30 18 -48.5 52t-24.5 82z" />
<glyph unicode="x" horiz-adv-x="1105" d="M-106 57q0 27 19 45.5t44 18.5q33 0 49 -31q37 20 81 60t93 92.5t103.5 114t109.5 126.5q-14 86 -26.5 169t-24.5 146.5t-26.5 102.5t-34.5 39q-14 0 -36 -22.5t-46.5 -56.5t-48 -73.5t-42 -73.5t-30.5 -56.5t-12 -20.5q-10 -18 -24.5 -25.5t-26 -5.5t-17.5 13.5t4 29.5 q61 119 105.5 195t81 119t73.5 59t82 16q55 0 98 -23.5t76 -63.5t55.5 -95t38.5 -117q59 68 116.5 127.5t109 104.5t95.5 71.5t79 28.5q12 4 22 4q23 0 41.5 -18.5t18.5 -44.5q0 -27 -18.5 -43.5t-41.5 -16.5q-18 0 -33 9h-2q-29 0 -66.5 -27t-84.5 -72t-100.5 -105.5 t-110.5 -127.5q16 -94 24.5 -187.5t14.5 -168t15 -121t28 -46.5q12 0 36.5 20.5t55.5 56.5t65.5 81t69.5 94q33 47 61.5 95.5t49 87.5t34 66.5t15.5 33.5q6 20 20.5 25.5t28.5 1.5q31 -10 19 -43q-23 -47 -57 -111.5t-77 -134.5t-92 -137.5t-100 -120.5t-101.5 -86 t-93.5 -33q-49 0 -86 30.5t-65.5 81t-50 116t-35.5 139.5q-61 -72 -123 -135.5t-119 -113.5t-108.5 -82t-94.5 -38q-4 -2 -14 -2q-6 0 -11 1t-12 1q-2 2 -4 2q-16 8 -26 21.5t-10 33.5z" />
<glyph unicode="y" horiz-adv-x="944" d="M-283 -500q-2 18 5.5 44t35.5 55q33 33 79 59.5t96.5 51t98.5 50t83 56.5q25 76 64.5 169t84.5 197q-61 -76 -124.5 -126t-123.5 -52h-8q-36 0 -62 16q-30 19 -48.5 52.5t-24.5 81.5q-3 25 -3 50.5t3 53.5q8 68 31.5 143.5t54.5 151.5t62.5 146.5t55 128t33 97.5t-5.5 52 q-14 12 13.5 28.5t68.5 18.5h7q38 0 78 -18q44 -21 63 -82q8 -25 8 -55q0 -40 -14 -89q-25 -86 -69 -178t-94 -182t-84 -161t-39 -113v-8q0 -30 33 -30q4 0 9 1q25 2 73 52t100 122.5t103.5 154.5t81.5 146q33 76 60.5 143.5t45 120.5t24 89t-4.5 48q-10 12 18.5 28.5 t71.5 18.5h7q39 0 78 -20q42 -23 61 -86q3 -11 3 -27q0 -33 -14 -85q-20 -77 -57 -173t-84 -201.5t-90 -199t-75.5 -163t-41.5 -95.5q74 49 154 138t149.5 186t123 189.5t73.5 147.5q6 18 20.5 23.5t27 1.5t19.5 -16.5t1 -26.5q-47 -104 -118 -220t-155 -222.5t-176 -191.5 t-180 -130q-12 -31 -32.5 -79t-42 -97.5t-39 -92.5t-25.5 -63q-20 -57 -64.5 -97t-99.5 -61.5t-114 -24.5h-20q-49 0 -92 12q-51 15 -89 51t-48 91zM-206 -495.5q3 -24.5 18.5 -44t39 -30t52 -2t59.5 40t57 97.5q12 29 30 68t36 90q-31 -25 -70 -43.5t-77.5 -37t-74.5 -41 t-59 -53.5q-14 -20 -11 -44.5z" />
<glyph unicode="z" horiz-adv-x="960" d="M-63 49q0 27 29.5 77t77.5 114.5t110.5 141.5t128 159t130 162.5t115.5 156.5q-49 2 -81.5 17.5t-57 33t-49.5 30.5t-59 13q-53 0 -93.5 -35.5t-40.5 -89.5q1 -63 47 -103q40 -35 94 -35q8 0 17 1q12 2 4 -16.5t-29.5 -42t-54 -43t-71.5 -19.5q-72 0 -122 45.5t-50 110.5 q0 61 21.5 114.5t59 93.5t88 62.5t107.5 22.5q43 0 75 -11.5t67.5 -24.5t78.5 -24.5t109 -11.5q63 0 104 3t71 8.5t51.5 8.5t47.5 3q25 0 25 -21q0 -10 -12.5 -23.5t-42 -44t-78.5 -82.5t-122 -138.5t-174.5 -212t-232.5 -302.5q23 0 47.5 -11t51 -24.5t55.5 -25.5t63 -12h6 q60 0 122 39q65 41 124.5 105.5t111.5 143t93 154.5q20 37 37 68.5t27 62.5q4 14 17 19.5t28 1.5q16 -4 22 -16.5t-2 -28.5q-20 -45 -51 -101.5t-66 -115.5q-43 -74 -96 -146t-111.5 -129t-124 -93t-133.5 -38q-49 0 -84.5 7t-67.5 16.5t-63.5 16.5t-74.5 7q-59 0 -101.5 -8 t-69 -13.5t-37.5 -2t-11 25.5z" />
<glyph unicode="{" horiz-adv-x="983" d="M76.5 -143.5q27.5 104.5 99.5 282.5q16 41 35.5 89t42.5 102q4 29 -2 39t-29 22q-16 14 -39.5 37t-21.5 70q2 16 12 41.5t51 46.5q20 10 43 15t43 9q10 2 21.5 4t15.5 4q39 47 64.5 99.5t41 108t24.5 111.5t16 110q8 51 16 98t20 88q31 100 97 145q53 37 128.5 41 t182.5 -24q16 -4 23.5 -18.5t1.5 -30.5q-4 -16 -20.5 -26.5t-31.5 -2.5q-4 2 -23.5 11t-53.5 -15q-47 -33 -63.5 -105.5t-29.5 -165.5q-10 -55 -19 -116.5t-26 -122.5q-23 -72 -54.5 -132.5t-76.5 -107.5q0 -4 -2 -4q-16 -12 -35.5 -18t-42.5 -11q-16 -4 -33.5 -8t-31.5 -10 q-10 -4 -10 -7t-2 -5q0 -12 6 -19.5t22 -19.5q12 -6 26.5 -17.5t25 -29t13.5 -42t-7 -61.5q0 -2 -1 -2t-1 -2q-20 -53 -40 -102t-36 -92q-55 -141 -87 -237.5t-10 -129.5q23 -31 53.5 -30t51.5 10q16 6 27.5 -7.5t13.5 -29.5q0 -16 -10.5 -29.5t-28.5 -15.5q-45 -4 -83 -7.5 t-71 -3.5q-68 0 -112.5 13.5t-69.5 48.5q-41 57 -13.5 161.5z" />
<glyph unicode="|" horiz-adv-x="503" d="M90 1229q-6 6 11.5 14t47 14.5t67.5 10.5t74 1t64.5 -12.5t40.5 -29.5q14 -25 17.5 -105t-1.5 -192.5t-19.5 -248.5t-32 -274.5t-39 -268.5t-44 -230.5t-44 -160.5t-37.5 -60q-12 0 -20.5 65.5t-15.5 171t-12.5 240.5t-10.5 277.5t-10 279.5t-10 246.5t-11.5 180.5 t-14.5 81z" />
<glyph unicode="}" horiz-adv-x="980" d="M20 -279q4 16 20.5 26.5t31.5 2.5q4 -2 23.5 -11t54.5 15q47 33 63 105.5t29 165.5q10 55 19 116.5t26 122.5q23 72 54.5 132.5t76.5 107.5q0 4 2 4q16 12 35.5 18t42.5 11q16 4 33.5 8t31.5 10q10 4 10 7t2 5q0 12 -6 19.5t-22 19.5q-12 6 -26.5 17.5t-25 29t-13.5 42 t7 61.5q0 2 1.5 2t1.5 2q20 53 39.5 102t35.5 92q55 141 87 237.5t10 129.5q-23 31 -53.5 30t-51.5 -10q-16 -6 -27.5 7.5t-13.5 29.5q0 16 10.5 29.5t28.5 15.5q45 4 83 7.5t71 3.5q68 0 112.5 -13.5t69.5 -48.5q20 -29 22.5 -68.5t-10 -94t-38 -124t-60.5 -157.5 q-16 -41 -35.5 -89t-42.5 -102q-4 -29 2 -39t29 -22q16 -14 39.5 -37t21.5 -70q-2 -16 -12 -41.5t-51 -46.5q-20 -10 -43 -15t-43 -9q-10 -2 -21.5 -4t-15.5 -4q-41 -47 -65.5 -99.5t-40 -108t-24.5 -111.5t-16 -110q-8 -51 -16 -98t-20 -88q-31 -100 -97 -145 q-53 -37 -128.5 -41t-182.5 24q-16 4 -23.5 18.5t-1.5 30.5z" />
<glyph unicode="~" horiz-adv-x="1155" d="M78 370.5q-6 20.5 1 73t32 134.5q43 137 97 197.5t117.5 69.5t133 -18.5t141.5 -66.5q51 -39 126 -70t148.5 -40t132 11.5t80.5 81.5q14 47 25.5 45t14.5 -29.5t-5 -69.5t-32 -75q-29 -37 -78 -68.5t-122 -46t-169 -6t-219 53.5q-63 18 -121.5 28.5t-108 0t-88.5 -46 t-59 -111.5q-14 -45 -27.5 -56.5t-19.5 9z" />
<glyph unicode="&#xa3;" horiz-adv-x="1476" d="M47 168q10 31 40 62.5t70 53t83 27.5t77 -18q37 68 68 152.5t59 179.5q-78 16 -129 34.5t-49 38.5q0 14 62.5 27.5t154.5 26.5q25 86 51.5 170t57.5 159.5t65.5 140t77.5 111.5q57 61 129 89t136.5 23t109.5 -39t51 -91q4 -31 -3 -64.5t-25 -68.5q-41 -74 -121 -133 q-37 -25 -58 6q-10 14 -6 30.5t21 26.5q68 49 91 98.5t19 83.5q-4 47 -41 54q-20 4 -45.5 -11.5t-52.5 -48.5q-74 -86 -125 -222t-96 -284q63 8 123.5 15.5t107.5 14.5t79 14.5t38 13.5q8 8 20.5 -20.5t17.5 -70.5t0 -83t-30 -56q-20 -12 -62 -19t-97.5 -9t-121 1t-130.5 9 q-29 -96 -62 -182t-74 -154q53 -31 102.5 -57.5t100.5 -43t106.5 -19.5t121 13.5t145.5 54.5t178 103q16 12 40 -4t41 -44t22.5 -58.5t-13.5 -42.5q-227 -154 -430 -154q-16 0 -34.5 1t-35.5 3q-59 8 -111 26.5t-98.5 42t-90.5 51.5t-87 52q-33 -47 -74.5 -87t-86.5 -56 q-78 -35 -143.5 -33t-104.5 37q-55 51 -29 127z" />
<glyph unicode="&#xa8;" horiz-adv-x="577" d="M53 1219q0 35 26.5 59.5t65.5 24.5t66 -25t27 -59q0 -35 -27 -59.5t-66 -24.5t-65.5 24.5t-26.5 59.5zM340 1219q0 35 26.5 59.5t65.5 24.5t65.5 -25t26.5 -59q0 -35 -26.5 -59.5t-65.5 -24.5t-65.5 24.5t-26.5 59.5z" />
<glyph unicode="&#xad;" d="M8 569q0 14 64.5 29.5t164 30t215 28t218 26.5t175.5 24.5t85 23.5q10 10 23.5 -22.5t20.5 -80.5t1 -95.5t-35 -65.5q-33 -20 -115 -27.5t-185 -3.5t-215 16.5t-205 31t-152.5 41t-59.5 44.5z" />
<glyph unicode="&#xb4;" horiz-adv-x="331" d="M54 1179.5q9 53.5 27.5 118t36 122.5t11.5 83q-4 14 23.5 16.5t62.5 -8t64.5 -33t29.5 -57.5q2 -57 -24.5 -119.5t-66.5 -109.5t-83 -71.5t-72 -6.5q-18 12 -9 65.5z" />
<glyph unicode="&#xb8;" horiz-adv-x="458" d="M38 -427q-3 32 5 56.5t29 18.5q70 -23 114.5 -2.5t60 53.5t0 64.5t-68.5 35.5q-23 4 -31 21q-10 16 -4 35l125 239q6 14 10.5 7t4.5 -34.5t-9 -73t-32 -106.5q20 -4 48.5 -12t53.5 -27.5t43.5 -54.5t18.5 -90q0 -53 -28 -96t-72 -73t-100 -44t-114 -8q-25 2 -38 30.5 t-16 60.5z" />
<glyph unicode="&#x2c6;" horiz-adv-x="1705" d="M303 1174.5q-4 17.5 14 13.5q8 -2 36 13.5t64 39t78 52t77.5 54t61.5 43t32 19.5q10 2 42.5 -37t70.5 -88t73 -91t51 -44q25 -4 18.5 -14.5t-30 -20.5t-56 -13t-63.5 9q-41 18 -75.5 45t-71.5 70q-59 -53 -100.5 -74t-84.5 -41q-35 -16 -65.5 -4t-49 31.5t-22.5 37z" />
<glyph unicode="&#x2da;" horiz-adv-x="591" d="M92 1231q0 41 16.5 78t44 64.5t64.5 44t78 16.5q43 0 80 -16.5t64.5 -44t44 -64.5t16.5 -78q0 -86 -59.5 -144.5t-145.5 -58.5q-41 0 -78 15.5t-64.5 43t-44 64.5t-16.5 80zM174 1231q0 -51 36 -86t85 -35q51 0 87 35t36 86q0 49 -36 85t-87 36q-49 0 -85 -36t-36 -85z " />
<glyph unicode="&#x2dc;" horiz-adv-x="700" d="M48.5 1066.5q-11.5 25.5 19.5 125.5q27 82 59.5 119t71.5 43t81 -10.5t85 -40.5q31 -23 75.5 -41.5t89.5 -24.5t81 6t48 49q8 29 15.5 28t9.5 -17.5t-3 -42t-19 -46.5q-16 -23 -47 -42t-75 -27t-102.5 -3t-132.5 32q-39 10 -74.5 16t-65.5 0t-53.5 -27.5t-35.5 -66.5 q-16 -55 -27.5 -29.5z" />
<glyph unicode="&#x2000;" horiz-adv-x="864" />
<glyph unicode="&#x2001;" horiz-adv-x="1728" />
<glyph unicode="&#x2002;" horiz-adv-x="864" />
<glyph unicode="&#x2003;" horiz-adv-x="1728" />
<glyph unicode="&#x2004;" horiz-adv-x="576" />
<glyph unicode="&#x2005;" horiz-adv-x="432" />
<glyph unicode="&#x2006;" horiz-adv-x="288" />
<glyph unicode="&#x2007;" horiz-adv-x="288" />
<glyph unicode="&#x2008;" horiz-adv-x="216" />
<glyph unicode="&#x2009;" horiz-adv-x="345" />
<glyph unicode="&#x200a;" horiz-adv-x="96" />
<glyph unicode="&#x2010;" d="M8 569q0 14 64.5 29.5t164 30t215 28t218 26.5t175.5 24.5t85 23.5q10 10 23.5 -22.5t20.5 -80.5t1 -95.5t-35 -65.5q-33 -20 -115 -27.5t-185 -3.5t-215 16.5t-205 31t-152.5 41t-59.5 44.5z" />
<glyph unicode="&#x2011;" d="M8 569q0 14 64.5 29.5t164 30t215 28t218 26.5t175.5 24.5t85 23.5q10 10 23.5 -22.5t20.5 -80.5t1 -95.5t-35 -65.5q-33 -20 -115 -27.5t-185 -3.5t-215 16.5t-205 31t-152.5 41t-59.5 44.5z" />
<glyph unicode="&#x2012;" d="M8 569q0 14 64.5 29.5t164 30t215 28t218 26.5t175.5 24.5t85 23.5q10 10 23.5 -22.5t20.5 -80.5t1 -95.5t-35 -65.5q-33 -20 -115 -27.5t-185 -3.5t-215 16.5t-205 31t-152.5 41t-59.5 44.5z" />
<glyph unicode="&#x2013;" horiz-adv-x="1130" d="M8 569q0 14 68 29.5t173 30t227 28t230.5 26.5t185.5 24.5t90 23.5q10 10 24.5 -22.5t21.5 -80.5t1 -95.5t-37 -65.5q-35 -20 -121.5 -27.5t-195 -3.5t-227 16.5t-216.5 31t-161 41t-63 44.5z" />
<glyph unicode="&#x2014;" horiz-adv-x="2154" d="M8 569q0 14 136 29.5t346.5 30t454.5 28t460 26.5t370.5 24.5t179.5 23.5q21 10 49.5 -22.5t43.5 -80.5t2 -95.5t-74 -65.5q-69 -20 -242.5 -27.5t-391 -3.5t-454 16.5t-433 31t-322 41t-125.5 44.5z" />
<glyph unicode="&#x2018;" horiz-adv-x="385" d="M68 918q-12 76 10 149.5t62 126.5t89.5 77.5t89.5 4.5q20 -10 -3 -44t-50.5 -86t-41 -119.5t25.5 -143.5q6 -12 -19.5 -21.5t-60.5 -8.5t-65.5 15.5t-36.5 49.5z" />
<glyph unicode="&#x2019;" horiz-adv-x="380" d="M66 862q-20 10 3 44t50.5 86t41 118.5t-25.5 144.5q-6 12 19.5 21.5t60.5 8.5t65.5 -15.5t36.5 -48.5q12 -78 -11 -151t-63 -126t-88.5 -77.5t-88.5 -4.5z" />
<glyph unicode="&#x201a;" horiz-adv-x="380" d="M66 -160q-20 10 3 44t50.5 86.5t41 118.5t-25.5 144q-6 12 19.5 21.5t60.5 8.5t65.5 -15.5t36.5 -48.5q12 -78 -11 -151t-63 -126t-88.5 -77.5t-88.5 -4.5z" />
<glyph unicode="&#x201c;" horiz-adv-x="729" d="M94 918q-12 76 10.5 149.5t62.5 126.5t89 77.5t90 4.5q20 -10 -3.5 -44t-51 -86t-41 -119.5t25.5 -143.5q6 -12 -19.5 -21.5t-60 -8.5t-65.5 15.5t-37 49.5zM381 918q-12 76 10.5 149.5t62.5 126.5t89 77.5t90 4.5q20 -10 -3.5 -44t-51 -86t-41 -119.5t25.5 -143.5 q6 -12 -19.5 -21.5t-60 -8.5t-65.5 15.5t-37 49.5z" />
<glyph unicode="&#x201d;" horiz-adv-x="727" d="M96 881q-20 10 3.5 43.5t51 86t41 119t-25.5 144.5q-6 12 19.5 21.5t60.5 8.5t65.5 -15.5t36.5 -49.5q12 -78 -11.5 -150.5t-63.5 -126t-88 -78t-89 -3.5zM383 881q-20 10 3.5 43.5t51 86t41 119t-25.5 144.5q-6 12 19.5 21.5t60 8.5t65.5 -15.5t37 -49.5 q12 -78 -11.5 -150.5t-63.5 -126t-88 -78t-89 -3.5z" />
<glyph unicode="&#x201e;" horiz-adv-x="727" d="M96 -160q-20 10 3.5 44t51 86.5t41 118.5t-25.5 144q-6 12 19.5 21.5t60.5 8.5t65.5 -15.5t36.5 -48.5q12 -78 -11.5 -151t-63.5 -126t-88 -77.5t-89 -4.5zM383 -160q-20 10 3.5 44t51 86.5t41 118.5t-25.5 144q-6 12 19.5 21.5t60 8.5t65.5 -15.5t37 -48.5 q12 -78 -11.5 -151t-63.5 -126t-88 -77.5t-89 -4.5z" />
<glyph unicode="&#x202f;" horiz-adv-x="345" />
<glyph unicode="&#x205f;" horiz-adv-x="432" />
<glyph unicode="&#x20ac;" horiz-adv-x="1261" d="M80 557q0 10 26.5 18.5t73.5 16.5q10 66 29.5 133.5t48.5 132.5q-78 16 -129 34.5t-49 39.5q0 16 71.5 29.5t176.5 27.5q80 133 186 236q41 39 84 69.5t90 55.5q49 27 100.5 43t102.5 26q53 8 106.5 2t98.5 -22q108 -44 151 -144q6 -16 0 -31.5t-22 -21.5 q-16 -8 -31.5 -3t-22.5 20q-47 84 -107 101t-128 -14.5t-136.5 -104.5t-131.5 -169q86 10 145 20.5t70 20.5q8 8 20 -20.5t17.5 -70.5t0 -83t-29.5 -55q-35 -23 -130 -28t-210 3q-23 -47 -41 -92t-35 -92q72 8 141.5 16t127 16.5t94 15.5t45.5 15q8 8 20 -20.5t17.5 -69.5 t0 -82t-29.5 -57q-23 -14 -70 -21.5t-110.5 -8.5t-137 4.5t-145.5 13.5q-16 -84 -13 -155t26.5 -120t71.5 -73.5t126 -14.5q33 4 61.5 19.5t53.5 31.5q51 37 84 99q10 16 25.5 21t31.5 -1q16 -8 20.5 -23.5t-4.5 -31.5q-41 -74 -106.5 -125t-151.5 -70q-39 -8 -86 -8 q-68 0 -130 22.5t-111 65.5q-78 70 -119 172q-35 94 -35 205v33q-43 12 -67.5 25.5t-24.5 27.5z" />
<glyph unicode="&#x25fc;" horiz-adv-x="1075" d="M0 0v1075h1075v-1075h-1075z" />
</font>
</defs>
</svg>
